<svg xmlns="http://www.w3.org/2000/svg" width="185" height="188" viewBox="-387 187 185 188"><style>.st0{display:none;} .st1{display:inline;} .st2{fill:#4E4E4E;} .st3{fill:url(#SVGID_1_);} .st4{fill:url(#SVGID_2_);} .st5{fill:url(#SVGID_3_);} .st6{fill:url(#SVGID_4_);} .st7{fill:url(#SVGID_5_);} .st8{fill:url(#SVGID_6_);} .st9{fill:url(#SVGID_7_);} .st10{fill:url(#SVGID_8_);} .st11{fill:#E6E6E5;} .st12{fill:url(#SVGID_9_);} .st13{fill:url(#SVGID_10_);} .st14{fill:url(#SVGID_11_);} .st15{fill:url(#SVGID_12_);} .st16{fill-rule:evenodd;clip-rule:evenodd;fill:#1D1D1B;} .st17{fill-rule:evenodd;clip-rule:evenodd;fill:#E6E6E5;}</style><g id="Layer_1" class="st0"><g class="st1"><g><path class="st2" d="M-271.1 205c0 2.7-.7 4.7-2.2 6.2-1.5 1.4-3.5 2.2-6.2 2.2h-5.1v-16h5.5c2.6 0 4.5.7 5.9 2 1.4 1.2 2.1 3.1 2.1 5.6zm-4.4.1c0-1.5-.3-2.6-.9-3.3-.6-.7-1.5-1.1-2.6-1.1h-1.3v9h1c1.3 0 2.3-.4 2.9-1.1.5-.7.9-1.9.9-3.5zM-263.9 213.5c-2.1 0-3.6-.6-4.8-1.7-1.1-1.1-1.7-2.7-1.7-4.7 0-2.1.5-3.7 1.6-4.8 1.1-1.1 2.6-1.7 4.5-1.7s3.3.5 4.3 1.5 1.5 2.4 1.5 4.2v1.9h-7.6c0 .7.3 1.2.8 1.6.5.4 1.1.6 1.9.6.7 0 1.4-.1 2.1-.2.6-.1 1.3-.4 2-.7v3.1c-.7.3-1.4.6-2.1.7-.6.2-1.5.2-2.5.2zm-.2-9.9c-.5 0-.9.2-1.3.5-.3.3-.5.8-.6 1.5h3.7c0-.6-.2-1.1-.5-1.4-.3-.4-.8-.6-1.3-.6zM-254.1 213.3l-4.7-12.4h4.4l2.1 7.3v.2s0 .2.1.3c0 .1 0 .2.1.4v.4h.1c0-.4.1-.8.2-1.2l2.2-7.4h4.4l-4.7 12.4h-4.2zM-240.6 213.3h-4.2v-16h9.4v3.5h-5.2v3.1h4.8v3.5h-4.8v5.9zM-228.5 213.5c-2.1 0-3.6-.6-4.8-1.7-1.1-1.1-1.7-2.7-1.7-4.7 0-2.1.5-3.7 1.6-4.8 1.1-1.1 2.6-1.7 4.5-1.7s3.3.5 4.3 1.5 1.5 2.4 1.5 4.2v1.9h-7.6c0 .7.3 1.2.8 1.6.5.4 1.1.6 1.9.6.7 0 1.4-.1 2.1-.2.6-.1 1.3-.4 2-.7v3.1c-.7.3-1.4.6-2.1.7-.6.2-1.5.2-2.5.2zm-.2-9.9c-.5 0-.9.2-1.3.5-.3.3-.5.8-.6 1.5h3.7c0-.6-.2-1.1-.5-1.4-.3-.4-.8-.6-1.3-.6zM-212.5 209.5c0 1.3-.4 2.3-1.4 3-.9.7-2.2 1-3.9 1-.9 0-1.7 0-2.4-.1s-1.4-.3-2.1-.5v-3.4c.7.3 1.4.5 2.2.7s1.5.3 2.1.3c.9 0 1.4-.2 1.4-.6 0-.2-.1-.4-.4-.6-.3-.2-1-.5-2.2-1-1.1-.5-1.9-1-2.4-1.6-.4-.6-.7-1.4-.7-2.3 0-1.2.4-2.1 1.3-2.7.9-.6 2.1-1 3.8-1 .8 0 1.6.1 2.3.3s1.5.4 2.2.8l-1.2 2.8c-.6-.3-1.2-.5-1.8-.7-.6-.2-1.1-.3-1.5-.3-.7 0-1 .2-1 .5 0 .2.1.4.4.5s.9.5 2.1.9c.9.4 1.5.7 1.9 1.1.4.3.7.7.9 1.2.3.5.4 1 .4 1.7zM-205.4 210.2c.6 0 1.3-.1 2.1-.4v3.1c-.6.2-1.1.4-1.6.5-.5.1-1.1.2-1.8.2-1.4 0-2.5-.4-3.1-1.1-.6-.7-.9-1.8-.9-3.3v-5.1h-1.5v-1.7l1.9-1.3 1.1-2.6h2.8v2.5h3v3.2h-3v4.8c-.1.8.2 1.2 1 1.2z"/></g><g><path class="st2" d="M-326.7 234.9H-337V233l3.9-3.9c1.2-1.2 1.9-2 2.3-2.5.4-.5.7-1 .8-1.4.2-.4.3-.9.3-1.4 0-.7-.2-1.2-.6-1.6-.4-.4-1-.6-1.7-.6-.6 0-1.1.1-1.7.3-.5.2-1.2.6-1.9 1.2l-1.3-1.6c.8-.7 1.7-1.2 2.5-1.5.8-.3 1.6-.4 2.5-.4 1.4 0 2.5.4 3.4 1.1s1.3 1.7 1.3 3c0 .7-.1 1.3-.4 1.9-.2.6-.6 1.2-1.1 1.9-.5.7-1.3 1.5-2.5 2.6l-2.6 2.5v.1h7.2l-.1 2.2zM-315.9 227.3c0 2.6-.4 4.6-1.3 5.9-.8 1.3-2.1 1.9-3.9 1.9-1.7 0-3-.7-3.8-2-.9-1.3-1.3-3.2-1.3-5.8 0-2.7.4-4.6 1.3-5.9.8-1.3 2.1-1.9 3.9-1.9 1.7 0 3 .7 3.8 2 .9 1.3 1.3 3.3 1.3 5.8zm-7.8 0c0 2.1.2 3.5.6 4.4.4.9 1.1 1.3 2 1.3s1.6-.4 2-1.3c.4-.9.6-2.4.6-4.4 0-2-.2-3.5-.6-4.4-.4-.9-1.1-1.4-2-1.4s-1.6.4-2 1.3c-.4 1-.6 2.5-.6 4.5zM-308.2 234.9h-2.4v-9.8c0-1.2 0-2.1.1-2.8-.2.2-.4.3-.6.5-.2.2-1 .8-2.3 1.9l-1.2-1.5 4.4-3.5h2v15.2zM-293.7 231.6h-2v3.3h-2.4v-3.3h-6.9v-1.9l6.9-10h2.4v9.8h2v2.1zm-4.4-2v-3.8c0-1.4 0-2.5.1-3.3h-.1c-.2.5-.5 1-.9 1.7l-3.8 5.5h4.7zM-279.7 230.8c0 1.3-.5 2.4-1.5 3.2-1 .8-2.3 1.1-4 1.1s-3.1-.3-4.2-.8V232c.7.3 1.4.6 2.2.8.8.2 1.5.3 2.2.3 1 0 1.7-.2 2.2-.6.5-.4.7-.9.7-1.5s-.2-1-.6-1.4c-.4-.4-1.3-.9-2.6-1.4-1.4-.6-2.4-1.2-2.9-1.9s-.8-1.6-.8-2.6c0-1.3.4-2.3 1.3-3 .9-.7 2.1-1.1 3.6-1.1 1.4 0 2.9.3 4.3 1l-.8 2c-1.3-.6-2.5-.8-3.6-.8-.8 0-1.4.2-1.8.5-.4.3-.6.8-.6 1.4 0 .4.1.7.2 1s.4.5.8.8c.4.2 1.1.6 2 1 1.1.5 1.9.9 2.4 1.3s.9.9 1.1 1.4c.3.3.4.9.4 1.6zM-273.3 235.1c-1.8 0-3.2-.5-4.2-1.6-1-1-1.5-2.5-1.5-4.3 0-1.9.5-3.3 1.4-4.4.9-1.1 2.2-1.6 3.8-1.6 1.5 0 2.7.5 3.6 1.4.9.9 1.3 2.2 1.3 3.8v1.3h-7.6c0 1.1.3 2 .9 2.6.6.6 1.4.9 2.4.9.7 0 1.3-.1 1.9-.2.6-.1 1.2-.3 1.9-.6v2c-.6.3-1.2.5-1.8.6-.6 0-1.3.1-2.1.1zm-.4-10c-.8 0-1.4.2-1.9.7-.5.5-.7 1.2-.8 2.1h5.2c0-.9-.2-1.7-.7-2.1-.4-.5-1-.7-1.8-.7zM-260.2 234.9l-.5-1.6h-.1c-.6.7-1.1 1.2-1.7 1.4-.6.3-1.3.4-2.2.4-1.1 0-2-.3-2.6-.9-.6-.6-.9-1.5-.9-2.6 0-1.2.4-2.1 1.3-2.7.9-.6 2.2-.9 4-1l2-.1v-.6c0-.7-.2-1.3-.5-1.6-.3-.4-.9-.5-1.6-.5-.6 0-1.1.1-1.7.3-.5.2-1.1.4-1.6.6l-.8-1.7c.6-.3 1.3-.6 2-.7.7-.2 1.4-.3 2.1-.3 1.5 0 2.6.3 3.3 1 .7.6 1.1 1.6 1.1 3v7.7c.2-.1-1.6-.1-1.6-.1zm-3.6-1.7c.9 0 1.6-.2 2.1-.7.5-.5.8-1.2.8-2.1v-1l-1.5.1c-1.1 0-2 .2-2.5.6-.5.3-.8.9-.8 1.6 0 .5.2.9.5 1.2.3.2.8.3 1.4.3zM-248.6 231.6c0 1.1-.4 2-1.2 2.6-.8.6-2 .9-3.5.9s-2.7-.2-3.7-.7v-2.1c1.3.6 2.6.9 3.8.9 1.5 0 2.2-.5 2.2-1.4 0-.3-.1-.5-.2-.7-.2-.2-.4-.4-.8-.6s-.9-.4-1.6-.7c-1.3-.5-2.2-1-2.7-1.5s-.7-1.2-.7-2c0-1 .4-1.7 1.2-2.3.8-.5 1.9-.8 3.2-.8 1.3 0 2.6.3 3.8.8l-.8 1.8c-1.2-.5-2.3-.8-3.1-.8-1.3 0-1.9.4-1.9 1.1 0 .4.2.7.5.9.3.2 1.1.6 2.2 1 .9.4 1.6.7 2.1 1 .4.3.7.7 1 1.1s.2 1 .2 1.5zM-237.1 229.1c0 1.9-.5 3.3-1.4 4.4s-2.3 1.6-4 1.6c-1.1 0-2-.2-2.8-.7-.8-.5-1.5-1.2-1.9-2.1-.4-.9-.7-2-.7-3.1 0-1.9.5-3.3 1.4-4.3 1-1 2.3-1.6 4-1.6 1.7 0 3 .5 3.9 1.6 1 1 1.5 2.4 1.5 4.2zm-8.4 0c0 2.6 1 4 2.9 4s2.9-1.3 2.9-4c0-2.6-1-3.9-2.9-3.9-1 0-1.8.3-2.2 1-.4.7-.7 1.7-.7 2.9zM-225.5 234.9h-2.4v-7c0-.9-.2-1.5-.5-2-.4-.4-.9-.7-1.7-.7-1 0-1.8.3-2.3.9-.5.6-.7 1.6-.7 3.1v5.7h-2.4v-11.4h1.9l.3 1.5h.1c.3-.5.8-1 1.5-1.3.6-.3 1.3-.4 2.1-.4 2.7 0 4.1 1.4 4.1 4.2v7.4z"/></g><g><path class="st2" d="M-331.4 204.3h6.9v8.6c-1.9.6-3.9 1-6.2 1-2.5 0-4.4-.7-5.7-2.1-1.3-1.4-2-3.5-2-6.1 0-2.6.7-4.6 2.2-6 1.5-1.4 3.5-2.2 6.2-2.2 1 0 2 .1 2.9.3.9.2 1.7.4 2.3.7l-1.4 3.4c-1.2-.6-2.4-.9-3.8-.9-1.3 0-2.2.4-2.9 1.2-.7.8-1 2-1 3.5s.3 2.6.9 3.4c.6.8 1.5 1.2 2.7 1.2.6 0 1.2-.1 1.8-.2v-2.5h-2.9v-3.3zM-309 205.3c0 2.7-.7 4.7-2.2 6.2s-3.5 2.2-6.2 2.2h-5.2v-16h5.6c2.6 0 4.6.7 6 2s2 3.2 2 5.6zm-4.5.2c0-1.5-.3-2.6-.9-3.3-.6-.7-1.5-1.1-2.6-1.1h-1.3v9h1c1.3 0 2.3-.4 2.9-1.1s.9-1.9.9-3.5zM-301 204.3h6.9v8.6c-1.9.6-3.9 1-6.2 1-2.5 0-4.4-.7-5.7-2.1-1.3-1.4-2-3.5-2-6.1 0-2.6.7-4.6 2.2-6 1.5-1.4 3.5-2.2 6.2-2.2 1 0 2 .1 2.9.3s1.7.4 2.3.7l-1.4 3.4c-1.2-.6-2.4-.9-3.8-.9-1.3 0-2.2.4-2.9 1.2-.7.8-1 2-1 3.5s.3 2.6.9 3.4c.6.8 1.5 1.2 2.7 1.2.6 0 1.2-.1 1.8-.2v-2.5h-2.9v-3.3z"/></g><radialGradient id="SVGID_1_" cx="-307.464" cy="250.567" r="20.113" gradientTransform="matrix(.498 0 0 -.498 -216.26 361.615)" gradientUnits="userSpaceOnUse"><stop offset="0" stop-color="#FFCF4F"/><stop offset="1" stop-color="#F4C236"/></radialGradient><path class="st3" d="M-378.1 248h6.8c1.6 0 3.6-1.1 4.4-2.5l5.7-9.5c.7-1.4.7-3.4-.1-4.7l-3.4-5.6-13.4 22.3z"/><radialGradient id="SVGID_2_" cx="-319.516" cy="260.781" r="27.657" gradientTransform="matrix(.498 0 0 -.498 -216.26 361.615)" gradientUnits="userSpaceOnUse"><stop offset="0" stop-color="#08A960"/><stop offset="1" stop-color="#07914B"/></radialGradient><path class="st4" d="M-370.8 220.5l-15.1 25.2c-.6 1.2 0 2.2 1.5 2.2h6.3l13.4-22.3-6.1-10.2c.8 1.5.8 3.7 0 5.1"/><radialGradient id="SVGID_3_" cx="-310.065" cy="300.462" r="40.538" gradientTransform="matrix(.498 0 0 -.498 -216.26 361.615)" gradientUnits="userSpaceOnUse"><stop offset="0" stop-color="#567FC0"/><stop offset="1" stop-color="#557FC0"/></radialGradient><path class="st5" d="M-384.4 188c-1.6 0-2.3 1.1-1.4 2.5l24.5 40.7c.8 1.3.8 3.3.1 4.7l6-9.9-22.9-38h-6.3z"/><radialGradient id="SVGID_4_" cx="-298" cy="310.426" r="33.058" gradientTransform="matrix(.498 0 0 -.498 -216.26 361.615)" gradientUnits="userSpaceOnUse"><stop offset="0" stop-color="#E14C40"/><stop offset="1" stop-color="#CD392D"/></radialGradient><path class="st6" d="M-378.1 188l22.9 38 3.3-5.5c.8-1.4.8-3.6 0-5l-15-25c-.8-1.4-2.8-2.5-4.4-2.5h-6.8z"/></g><g class="st1"><g><path class="st2" d="M-271.1 268c0 2.7-.7 4.7-2.2 6.2-1.5 1.4-3.5 2.2-6.2 2.2h-5.1v-16h5.5c2.6 0 4.5.7 5.9 2 1.4 1.2 2.1 3.1 2.1 5.6zm-4.4.1c0-1.5-.3-2.6-.9-3.3-.6-.7-1.5-1.1-2.6-1.1h-1.3v9h1c1.3 0 2.3-.4 2.9-1.1.5-.7.9-1.9.9-3.5zM-263.9 276.5c-2.1 0-3.6-.6-4.8-1.7-1.1-1.1-1.7-2.7-1.7-4.7 0-2.1.5-3.7 1.6-4.8 1.1-1.1 2.6-1.7 4.5-1.7s3.3.5 4.3 1.5 1.5 2.4 1.5 4.2v1.9h-7.6c0 .7.3 1.2.8 1.6.5.4 1.1.6 1.9.6.7 0 1.4-.1 2.1-.2.6-.1 1.3-.4 2-.7v3.1c-.7.3-1.4.6-2.1.7-.6.2-1.5.2-2.5.2zm-.2-9.9c-.5 0-.9.2-1.3.5-.3.3-.5.8-.6 1.5h3.7c0-.6-.2-1.1-.5-1.4-.3-.4-.8-.6-1.3-.6zM-254.1 276.3l-4.7-12.4h4.4l2.1 7.3v.2c0 .1 0 .2.1.3 0 .1 0 .2.1.4v.4h.1c0-.4.1-.8.2-1.2l2.2-7.4h4.4l-4.7 12.4h-4.2zM-240.6 276.3h-4.2v-16h9.4v3.5h-5.2v3.1h4.8v3.5h-4.8v5.9zM-228.5 276.5c-2.1 0-3.6-.6-4.8-1.7-1.1-1.1-1.7-2.7-1.7-4.7 0-2.1.5-3.7 1.6-4.8 1.1-1.1 2.6-1.7 4.5-1.7s3.3.5 4.3 1.5 1.5 2.4 1.5 4.2v1.9h-7.6c0 .7.3 1.2.8 1.6.5.4 1.1.6 1.9.6.7 0 1.4-.1 2.1-.2.6-.1 1.3-.4 2-.7v3.1c-.7.3-1.4.6-2.1.7-.6.2-1.5.2-2.5.2zm-.2-9.9c-.5 0-.9.2-1.3.5-.3.3-.5.8-.6 1.5h3.7c0-.6-.2-1.1-.5-1.4-.3-.4-.8-.6-1.3-.6zM-212.5 272.5c0 1.3-.4 2.3-1.4 3-.9.7-2.2 1-3.9 1-.9 0-1.7-.1-2.4-.1s-1.4-.3-2.1-.5v-3.4c.7.3 1.4.5 2.2.7s1.5.3 2.1.3c.9 0 1.4-.2 1.4-.6 0-.2-.1-.4-.4-.6-.3-.2-1-.5-2.2-1-1.1-.5-1.9-1-2.4-1.6-.4-.6-.7-1.4-.7-2.3 0-1.2.4-2.1 1.3-2.7.9-.6 2.1-1 3.8-1 .8 0 1.6.1 2.3.3.7.2 1.5.4 2.2.8l-1.2 2.8c-.6-.3-1.2-.5-1.8-.7-.6-.2-1.1-.3-1.5-.3-.7 0-1 .2-1 .5 0 .2.1.4.4.5.2.1.9.5 2.1.9.9.4 1.5.7 1.9 1.1.4.3.7.7.9 1.2.3.5.4 1 .4 1.7zM-205.4 273.2c.6 0 1.3-.1 2.1-.4v3.1c-.6.2-1.1.4-1.6.5-.5.1-1.1.2-1.8.2-1.4 0-2.5-.4-3.1-1.1-.6-.7-.9-1.8-.9-3.3v-5.1h-1.5v-1.7l1.9-1.4 1.1-2.6h2.8v2.5h3v3.2h-3v4.8c-.1.9.2 1.3 1 1.3z"/></g><g><path class="st2" d="M-326.7 297.9H-337V296l3.9-3.9c1.2-1.2 1.9-2 2.3-2.5.4-.5.7-1 .8-1.4.2-.4.3-.9.3-1.4 0-.7-.2-1.2-.6-1.6-.4-.4-1-.6-1.7-.6-.6 0-1.1.1-1.7.3-.5.2-1.2.6-1.9 1.2l-1.3-1.6c.8-.7 1.7-1.2 2.5-1.5.8-.3 1.6-.4 2.5-.4 1.4 0 2.5.4 3.4 1.1.8.7 1.3 1.7 1.3 3 0 .7-.1 1.3-.4 1.9-.2.6-.6 1.2-1.1 1.9-.5.7-1.3 1.5-2.5 2.6l-2.6 2.5v.1h7.2l-.1 2.2zM-315.9 290.3c0 2.6-.4 4.6-1.3 5.9-.8 1.3-2.1 1.9-3.9 1.9-1.7 0-3-.7-3.8-2-.9-1.3-1.3-3.2-1.3-5.8 0-2.7.4-4.6 1.3-5.9.8-1.3 2.1-1.9 3.9-1.9 1.7 0 3 .7 3.8 2 .9 1.3 1.3 3.3 1.3 5.8zm-7.8 0c0 2.1.2 3.5.6 4.4.4.9 1.1 1.3 2 1.3s1.6-.4 2-1.3c.4-.9.6-2.4.6-4.4 0-2-.2-3.5-.6-4.4-.4-.9-1.1-1.4-2-1.4s-1.6.4-2 1.3c-.4 1-.6 2.5-.6 4.5zM-308.2 297.9h-2.4v-9.8c0-1.2 0-2.1.1-2.8-.2.2-.4.3-.6.5-.2.2-1 .8-2.3 1.9l-1.2-1.5 4.4-3.5h2v15.2zM-293.7 294.6h-2v3.3h-2.4v-3.3h-6.9v-1.9l6.9-10h2.4v9.8h2v2.1zm-4.4-2v-3.8c0-1.4 0-2.5.1-3.3h-.1c-.2.5-.5 1-.9 1.7l-3.8 5.5h4.7zM-279.7 293.8c0 1.3-.5 2.4-1.5 3.2-1 .8-2.3 1.1-4 1.1s-3.1-.3-4.2-.8V295c.7.3 1.4.6 2.2.8.8.2 1.5.3 2.2.3 1 0 1.7-.2 2.2-.6.5-.4.7-.9.7-1.5s-.2-1-.6-1.4c-.4-.4-1.3-.9-2.6-1.4-1.4-.6-2.4-1.2-2.9-1.9-.6-.7-.8-1.6-.8-2.6 0-1.3.4-2.3 1.3-3 .9-.7 2.1-1.1 3.6-1.1 1.4 0 2.9.3 4.3 1l-.8 2c-1.3-.6-2.5-.8-3.6-.8-.8 0-1.4.2-1.8.5-.4.3-.6.8-.6 1.4 0 .4.1.7.2 1 .2.3.4.5.8.8.4.2 1.1.6 2 1 1.1.5 1.9.9 2.4 1.3s.9.9 1.1 1.4c.3.3.4.9.4 1.6zM-273.3 298.1c-1.8 0-3.2-.5-4.2-1.6-1-1-1.5-2.5-1.5-4.3 0-1.9.5-3.3 1.4-4.4.9-1.1 2.2-1.6 3.8-1.6 1.5 0 2.7.5 3.6 1.4.9.9 1.3 2.2 1.3 3.8v1.3h-7.6c0 1.1.3 2 .9 2.6.6.6 1.4.9 2.4.9.7 0 1.3-.1 1.9-.2.6-.1 1.2-.3 1.9-.6v2c-.6.3-1.2.5-1.8.6-.6 0-1.3.1-2.1.1zm-.4-10c-.8 0-1.4.2-1.9.7-.5.5-.7 1.2-.8 2.1h5.2c0-.9-.2-1.7-.7-2.1-.4-.5-1-.7-1.8-.7zM-260.2 297.9l-.5-1.6h-.1c-.6.7-1.1 1.2-1.7 1.4-.6.3-1.3.4-2.2.4-1.1 0-2-.3-2.6-.9-.6-.6-.9-1.5-.9-2.6 0-1.2.4-2.1 1.3-2.7.9-.6 2.2-.9 4-1l2-.1v-.6c0-.7-.2-1.3-.5-1.6-.3-.4-.9-.5-1.6-.5-.6 0-1.1.1-1.7.3-.5.2-1.1.4-1.6.6l-.8-1.7c.6-.3 1.3-.6 2-.7s1.4-.3 2.1-.3c1.5 0 2.6.3 3.3 1 .7.6 1.1 1.6 1.1 3v7.7c.2-.1-1.6-.1-1.6-.1zm-3.6-1.7c.9 0 1.6-.2 2.1-.7.5-.5.8-1.2.8-2.1v-1l-1.5.1c-1.1 0-2 .2-2.5.6-.5.3-.8.9-.8 1.6 0 .5.2.9.5 1.2.3.2.8.3 1.4.3zM-248.6 294.6c0 1.1-.4 2-1.2 2.6-.8.6-2 .9-3.5.9s-2.7-.2-3.7-.7v-2.1c1.3.6 2.6.9 3.8.9 1.5 0 2.2-.5 2.2-1.4 0-.3-.1-.5-.2-.7-.2-.2-.4-.4-.8-.6s-.9-.4-1.6-.7c-1.3-.5-2.2-1-2.7-1.5s-.7-1.2-.7-2c0-1 .4-1.7 1.2-2.3.8-.5 1.9-.8 3.2-.8 1.3 0 2.6.3 3.8.8l-.8 1.8c-1.2-.5-2.3-.8-3.1-.8-1.3 0-1.9.4-1.9 1.1 0 .4.2.7.5.9.3.2 1.1.6 2.2 1 .9.4 1.6.7 2.1 1 .4.3.7.7 1 1s.2 1.1.2 1.6zM-237.1 292.1c0 1.9-.5 3.3-1.4 4.4-1 1-2.3 1.6-4 1.6-1.1 0-2-.2-2.8-.7-.8-.5-1.5-1.2-1.9-2.1-.4-.9-.7-2-.7-3.1 0-1.9.5-3.3 1.4-4.3 1-1 2.3-1.6 4-1.6 1.7 0 3 .5 3.9 1.6s1.5 2.4 1.5 4.2zm-8.4 0c0 2.6 1 4 2.9 4s2.9-1.3 2.9-4c0-2.6-1-3.9-2.9-3.9-1 0-1.8.3-2.2 1-.4.7-.7 1.7-.7 2.9zM-225.5 297.9h-2.4v-7c0-.9-.2-1.5-.5-2-.4-.4-.9-.7-1.7-.7-1 0-1.8.3-2.3.9-.5.6-.7 1.6-.7 3.1v5.7h-2.4v-11.4h1.9l.3 1.5h.1c.3-.5.8-1 1.5-1.3.6-.3 1.3-.4 2.1-.4 2.7 0 4.1 1.4 4.1 4.2v7.4z"/></g><g><path class="st2" d="M-331.4 267.3h6.9v8.6c-1.9.6-3.9 1-6.2 1-2.5 0-4.4-.7-5.7-2.1-1.3-1.4-2-3.5-2-6.1 0-2.6.7-4.6 2.2-6 1.5-1.4 3.5-2.2 6.2-2.2 1 0 2 .1 2.9.3.9.2 1.7.4 2.3.7l-1.4 3.4c-1.2-.6-2.4-.9-3.8-.9-1.3 0-2.2.4-2.9 1.2-.7.8-1 2-1 3.5s.3 2.6.9 3.4 1.5 1.2 2.7 1.2c.6 0 1.2-.1 1.8-.2v-2.5h-2.9v-3.3zM-309 268.3c0 2.7-.7 4.7-2.2 6.2-1.5 1.4-3.5 2.2-6.2 2.2h-5.2v-16h5.6c2.6 0 4.6.7 6 2 1.3 1.3 2 3.2 2 5.6zm-4.5.2c0-1.5-.3-2.6-.9-3.3-.6-.7-1.5-1.1-2.6-1.1h-1.3v9h1c1.3 0 2.3-.4 2.9-1.1.6-.8.9-1.9.9-3.5zM-301 267.3h6.9v8.6c-1.9.6-3.9 1-6.2 1-2.5 0-4.4-.7-5.7-2.1-1.3-1.4-2-3.5-2-6.1 0-2.6.7-4.6 2.2-6 1.5-1.4 3.5-2.2 6.2-2.2 1 0 2 .1 2.9.3.9.2 1.7.4 2.3.7l-1.4 3.4c-1.2-.6-2.4-.9-3.8-.9-1.3 0-2.2.4-2.9 1.2-.7.8-1 2-1 3.5s.3 2.6.9 3.4 1.5 1.2 2.7 1.2c.6 0 1.2-.1 1.8-.2v-2.5h-2.9v-3.3z"/></g><radialGradient id="SVGID_5_" cx="-307.464" cy="124.061" r="20.113" gradientTransform="matrix(.498 0 0 -.498 -216.26 361.615)" gradientUnits="userSpaceOnUse"><stop offset="0" stop-color="#CCC"/><stop offset="1" stop-color="#C0C0C0"/></radialGradient><path class="st7" d="M-378.1 311h6.8c1.6 0 3.6-1.1 4.4-2.5l5.7-9.5c.7-1.4.7-3.4-.1-4.7l-3.4-5.6-13.4 22.3z"/><radialGradient id="SVGID_6_" cx="-319.516" cy="134.275" r="27.657" gradientTransform="matrix(.498 0 0 -.498 -216.26 361.615)" gradientUnits="userSpaceOnUse"><stop offset="0" stop-color="#A0A0A0"/><stop offset="1" stop-color="#7B7B7B"/></radialGradient><path class="st8" d="M-370.8 283.5l-15.1 25.2c-.6 1.2 0 2.2 1.5 2.2h6.3l13.4-22.3-6.1-10.2c.8 1.5.8 3.7 0 5.1"/><radialGradient id="SVGID_7_" cx="-310.065" cy="173.956" r="40.538" gradientTransform="matrix(.498 0 0 -.498 -216.26 361.615)" gradientUnits="userSpaceOnUse"><stop offset="0" stop-color="#848484"/><stop offset="1" stop-color="#838383"/></radialGradient><path class="st9" d="M-384.4 251c-1.6 0-2.3 1.1-1.4 2.5l24.5 40.7c.8 1.3.8 3.3.1 4.7l6-9.9-22.9-38h-6.3z"/><radialGradient id="SVGID_8_" cx="-298" cy="183.92" r="33.058" gradientTransform="matrix(.498 0 0 -.498 -216.26 361.615)" gradientUnits="userSpaceOnUse"><stop offset="0" stop-color="#626262"/><stop offset="1" stop-color="#474747"/></radialGradient><path class="st10" d="M-378.1 251l22.9 38 3.3-5.5c.8-1.4.8-3.6 0-5l-15-25c-.8-1.4-2.8-2.5-4.4-2.5h-6.8z"/></g><g class="st1"><g><path class="st11" d="M-270.9 331c0 2.7-.7 4.7-2.2 6.2-1.5 1.4-3.5 2.2-6.2 2.2h-5.1v-16h5.5c2.6 0 4.5.7 5.9 2 1.4 1.2 2.1 3.1 2.1 5.6zm-4.5.1c0-1.5-.3-2.6-.9-3.3-.6-.7-1.5-1.1-2.6-1.1h-1.3v9h1c1.3 0 2.3-.4 2.9-1.1.6-.7.9-1.9.9-3.5zM-263.7 339.5c-2.1 0-3.6-.6-4.8-1.7s-1.7-2.7-1.7-4.7c0-2.1.5-3.7 1.6-4.8 1.1-1.1 2.6-1.7 4.5-1.7s3.3.5 4.3 1.5 1.5 2.4 1.5 4.2v1.9h-7.6c0 .7.3 1.2.8 1.6.5.4 1.1.6 1.9.6.7 0 1.4-.1 2.1-.2.6-.1 1.3-.4 2-.7v3.1c-.7.3-1.4.6-2.1.7-.7.2-1.5.2-2.5.2zm-.3-9.9c-.5 0-.9.2-1.3.5-.3.3-.5.8-.6 1.5h3.7c0-.6-.2-1.1-.5-1.4-.3-.4-.7-.6-1.3-.6zM-254 339.3l-4.7-12.4h4.4l2.1 7.3v.2c0 .1 0 .2.1.3 0 .1 0 .2.1.4v.4h.1c0-.4.1-.8.2-1.2l2.2-7.4h4.4l-4.7 12.4h-4.2zM-240.5 339.3h-4.2v-16h9.4v3.5h-5.2v3.1h4.8v3.5h-4.8v5.9zM-228.3 339.5c-2.1 0-3.6-.6-4.8-1.7s-1.7-2.7-1.7-4.7c0-2.1.5-3.7 1.6-4.8 1.1-1.1 2.6-1.7 4.5-1.7s3.3.5 4.3 1.5 1.5 2.4 1.5 4.2v1.9h-7.6c0 .7.3 1.2.8 1.6.5.4 1.1.6 1.9.6.7 0 1.4-.1 2.1-.2s1.3-.4 2-.7v3.1c-.7.3-1.4.6-2.1.7-.7.2-1.5.2-2.5.2zm-.3-9.9c-.5 0-.9.2-1.3.5-.3.3-.5.8-.6 1.5h3.7c0-.6-.2-1.1-.5-1.4-.3-.4-.7-.6-1.3-.6zM-212.3 335.5c0 1.3-.4 2.3-1.4 3-.9.7-2.2 1-3.9 1-.9 0-1.7 0-2.4-.1s-1.4-.3-2.1-.5v-3.4c.7.3 1.4.5 2.2.7.8.2 1.5.3 2.1.3.9 0 1.4-.2 1.4-.6 0-.2-.1-.4-.4-.6-.3-.2-1-.5-2.2-1-1.1-.5-1.9-1-2.4-1.6-.4-.6-.7-1.4-.7-2.3 0-1.2.4-2.1 1.3-2.7.9-.6 2.1-1 3.8-1 .8 0 1.6.1 2.3.3.7.2 1.5.4 2.2.8l-1.2 2.8c-.6-.3-1.2-.5-1.8-.7-.6-.2-1.1-.3-1.5-.3-.7 0-1 .2-1 .5 0 .2.1.4.4.5.2.1.9.5 2.1.9.9.4 1.5.7 1.9 1.1.4.3.7.7.9 1.2.3.5.4 1 .4 1.7zM-205.2 336.2c.6 0 1.3-.1 2.1-.4v3.1c-.6.2-1.1.4-1.6.5-.5.1-1.1.2-1.8.2-1.4 0-2.5-.4-3.1-1.1-.6-.7-.9-1.8-.9-3.3v-5.1h-1.5v-1.7l1.9-1.3 1.1-2.6h2.8v2.5h3v3.2h-3v4.8c-.2.8.2 1.2 1 1.2z"/></g><g><path class="st11" d="M-326.6 360.9h-10.3V359l3.9-3.9c1.2-1.2 1.9-2 2.3-2.5.4-.5.6-1 .8-1.4.2-.4.3-.9.3-1.4 0-.7-.2-1.2-.6-1.6-.4-.4-1-.6-1.7-.6-.6 0-1.1.1-1.7.3-.5.2-1.2.6-1.9 1.2l-1.3-1.6c.8-.7 1.7-1.2 2.5-1.5.8-.3 1.6-.4 2.5-.4 1.4 0 2.5.4 3.4 1.1.8.7 1.3 1.7 1.3 3 0 .7-.1 1.3-.4 1.9-.2.6-.6 1.2-1.1 1.9-.5.7-1.4 1.5-2.5 2.6l-2.6 2.5v.1h7.2l-.1 2.2zM-315.7 353.3c0 2.6-.4 4.6-1.3 5.9-.8 1.3-2.1 1.9-3.9 1.9-1.7 0-3-.7-3.8-2-.9-1.3-1.3-3.2-1.3-5.8 0-2.7.4-4.6 1.3-5.9.8-1.3 2.1-1.9 3.9-1.9 1.7 0 3 .7 3.8 2 .8 1.3 1.3 3.3 1.3 5.8zm-7.8 0c0 2.1.2 3.5.6 4.4.4.9 1.1 1.3 2 1.3s1.6-.4 2-1.3c.4-.9.6-2.4.6-4.4 0-2-.2-3.5-.6-4.4-.4-.9-1.1-1.4-2-1.4s-1.6.4-2 1.3c-.4 1-.6 2.5-.6 4.5zM-308 360.9h-2.4v-9.8c0-1.2 0-2.1.1-2.8-.2.2-.4.3-.6.5-.2.2-1 .8-2.3 1.9l-1.2-1.5 4.4-3.5h2v15.2zM-293.6 357.6h-2v3.3h-2.4v-3.3h-6.9v-1.9l6.9-10h2.4v9.8h2v2.1zm-4.4-2v-3.8c0-1.4 0-2.5.1-3.3h-.1c-.2.5-.5 1-.9 1.7l-3.8 5.5h4.7zM-279.5 356.8c0 1.3-.5 2.4-1.5 3.2-1 .8-2.3 1.1-4 1.1s-3.1-.3-4.2-.8V358c.7.3 1.4.6 2.2.8.8.2 1.5.3 2.2.3 1 0 1.7-.2 2.2-.6s.7-.9.7-1.5-.2-1-.6-1.4c-.4-.4-1.3-.9-2.6-1.4-1.4-.6-2.4-1.2-2.9-1.9-.6-.7-.8-1.6-.8-2.6 0-1.3.4-2.3 1.3-3 .9-.7 2.1-1.1 3.6-1.1 1.4 0 2.9.3 4.3 1l-.8 2c-1.3-.6-2.5-.8-3.6-.8-.8 0-1.4.2-1.8.5-.4.3-.6.8-.6 1.4 0 .4.1.7.2 1 .2.3.4.5.8.8.4.2 1.1.6 2 1 1.1.5 1.9.9 2.4 1.3s.9.9 1.1 1.4c.3.3.4.9.4 1.6zM-273.1 361.1c-1.8 0-3.2-.5-4.2-1.6-1-1-1.5-2.5-1.5-4.3 0-1.9.5-3.3 1.4-4.4.9-1.1 2.2-1.6 3.8-1.6 1.5 0 2.7.5 3.6 1.4.9.9 1.3 2.2 1.3 3.8v1.3h-7.6c0 1.1.3 2 .9 2.6.6.6 1.4.9 2.4.9.7 0 1.3-.1 1.9-.2.6-.1 1.2-.3 1.9-.6v2c-.6.3-1.2.5-1.8.6s-1.3.1-2.1.1zm-.5-10c-.8 0-1.4.2-1.9.7-.5.5-.7 1.2-.8 2.1h5.2c0-.9-.2-1.7-.7-2.1s-1-.7-1.8-.7zM-260 360.9l-.5-1.6h-.1c-.6.7-1.1 1.2-1.7 1.4-.6.3-1.3.4-2.2.4-1.1 0-2-.3-2.6-.9-.6-.6-.9-1.5-.9-2.6 0-1.2.4-2.1 1.3-2.7.9-.6 2.2-.9 4-1l2-.1v-.6c0-.7-.2-1.3-.5-1.6-.3-.4-.9-.5-1.6-.5-.6 0-1.1.1-1.7.3-.5.2-1.1.4-1.6.6l-.8-1.7c.6-.3 1.3-.6 2-.7.7-.2 1.4-.3 2.1-.3 1.5 0 2.6.3 3.3 1 .7.6 1.1 1.6 1.1 3v7.7h-1.6v-.1zm-3.6-1.7c.9 0 1.6-.2 2.1-.7.5-.5.8-1.2.8-2.1v-1l-1.5.1c-1.1 0-2 .2-2.5.6-.5.3-.8.9-.8 1.6 0 .5.2.9.5 1.2.3.2.8.3 1.4.3zM-248.5 357.6c0 1.1-.4 2-1.2 2.6-.8.6-2 .9-3.5.9s-2.7-.2-3.7-.7v-2.1c1.3.6 2.6.9 3.8.9 1.5 0 2.2-.5 2.2-1.4 0-.3-.1-.5-.2-.7-.2-.2-.4-.4-.8-.6-.4-.2-.9-.4-1.6-.7-1.3-.5-2.2-1-2.7-1.5s-.7-1.2-.7-2c0-1 .4-1.7 1.2-2.3.8-.5 1.9-.8 3.2-.8 1.3 0 2.6.3 3.8.8l-.8 1.8c-1.2-.5-2.3-.8-3.1-.8-1.3 0-1.9.4-1.9 1.1 0 .4.2.7.5.9.3.2 1.1.6 2.2 1 .9.4 1.6.7 2.1 1 .4.3.7.7 1 1.1s.2 1 .2 1.5zM-237 355.1c0 1.9-.5 3.3-1.4 4.4-1 1-2.3 1.6-4 1.6-1.1 0-2-.2-2.8-.7-.8-.5-1.5-1.2-1.9-2.1-.4-.9-.7-2-.7-3.1 0-1.9.5-3.3 1.4-4.3 1-1 2.3-1.6 4-1.6 1.7 0 3 .5 3.9 1.6s1.5 2.4 1.5 4.2zm-8.3 0c0 2.6 1 4 2.9 4s2.9-1.3 2.9-4c0-2.6-1-3.9-2.9-3.9-1 0-1.8.3-2.2 1-.5.7-.7 1.7-.7 2.9zM-225.4 360.9h-2.4v-7c0-.9-.2-1.5-.5-2-.4-.4-.9-.7-1.7-.7-1 0-1.8.3-2.3.9-.5.6-.7 1.6-.7 3.1v5.7h-2.4v-11.4h1.9l.3 1.5h.1c.3-.5.8-1 1.5-1.3.6-.3 1.3-.4 2.1-.4 2.7 0 4.1 1.4 4.1 4.2v7.4z"/></g><g><path class="st11" d="M-331.3 330.3h6.9v8.6c-1.9.6-3.9 1-6.2 1-2.5 0-4.4-.7-5.7-2.1s-2-3.5-2-6.1c0-2.6.7-4.6 2.2-6s3.5-2.2 6.2-2.2c1 0 2 .1 2.9.3.9.2 1.7.4 2.3.7l-1.4 3.4c-1.2-.6-2.4-.9-3.8-.9-1.3 0-2.2.4-2.9 1.2-.7.8-1 2-1 3.5s.3 2.6.9 3.4 1.5 1.2 2.7 1.2c.6 0 1.2-.1 1.8-.2v-2.5h-2.9v-3.3zM-308.8 331.3c0 2.7-.7 4.7-2.2 6.2-1.5 1.4-3.5 2.2-6.2 2.2h-5.2v-16h5.6c2.6 0 4.6.7 6 2s2 3.2 2 5.6zm-4.5.2c0-1.5-.3-2.6-.9-3.3-.6-.7-1.5-1.1-2.6-1.1h-1.3v9h1c1.3 0 2.3-.4 2.9-1.1.6-.8.9-1.9.9-3.5zM-300.9 330.3h6.9v8.6c-1.9.6-3.9 1-6.2 1-2.5 0-4.4-.7-5.7-2.1s-2-3.5-2-6.1c0-2.6.7-4.6 2.2-6 1.5-1.4 3.5-2.2 6.2-2.2 1 0 2 .1 2.9.3.9.2 1.7.4 2.3.7l-1.4 3.4c-1.2-.6-2.4-.9-3.8-.9-1.3 0-2.2.4-2.9 1.2-.7.8-1 2-1 3.5s.3 2.6.9 3.4 1.5 1.2 2.7 1.2c.6 0 1.2-.1 1.8-.2v-2.5h-2.9v-3.3z"/></g><radialGradient id="SVGID_9_" cx="-307.147" cy="-2.445" r="20.113" gradientTransform="matrix(.498 0 0 -.498 -216.26 361.615)" gradientUnits="userSpaceOnUse"><stop offset="0" stop-color="#FFCF4F"/><stop offset="1" stop-color="#F4C236"/></radialGradient><path class="st12" d="M-377.9 374h6.8c1.6 0 3.6-1.1 4.4-2.5l5.7-9.5c.7-1.4.7-3.4-.1-4.7l-3.4-5.6-13.4 22.3z"/><radialGradient id="SVGID_10_" cx="-319.198" cy="7.769" r="27.657" gradientTransform="matrix(.498 0 0 -.498 -216.26 361.615)" gradientUnits="userSpaceOnUse"><stop offset="0" stop-color="#08A960"/><stop offset="1" stop-color="#07914B"/></radialGradient><path class="st13" d="M-370.6 346.5l-15.1 25.2c-.6 1.2 0 2.2 1.5 2.2h6.3l13.4-22.3-6.1-10.2c.8 1.5.8 3.7 0 5.1"/><radialGradient id="SVGID_11_" cx="-309.748" cy="47.45" r="40.538" gradientTransform="matrix(.498 0 0 -.498 -216.26 361.615)" gradientUnits="userSpaceOnUse"><stop offset="0" stop-color="#567FC0"/><stop offset="1" stop-color="#557FC0"/></radialGradient><path class="st14" d="M-384.2 314c-1.6 0-2.3 1.1-1.4 2.5l24.5 40.7c.8 1.3.8 3.3.1 4.7l6-9.9-22.9-38h-6.3z"/><radialGradient id="SVGID_12_" cx="-297.682" cy="57.414" r="33.058" gradientTransform="matrix(.498 0 0 -.498 -216.26 361.615)" gradientUnits="userSpaceOnUse"><stop offset="0" stop-color="#E14C40"/><stop offset="1" stop-color="#CD392D"/></radialGradient><path class="st15" d="M-377.9 314l22.9 38 3.3-5.5c.8-1.4.8-3.6 0-5l-15-25c-.8-1.4-2.8-2.5-4.4-2.5h-6.8z"/></g></g><g id="Lager_2"><path class="st16" d="M-335.2 268.2c0-1.2-.2-2.3-.5-3.4s-.8-2-1.4-2.8c-.6-.8-1.3-1.4-2.1-1.8-.8-.5-1.8-.7-2.8-.7h-4v17.9h4c1 0 1.9-.3 2.7-.8.8-.5 1.5-1.2 2.1-2.1.6-.9 1-1.8 1.4-3 .5-1 .6-2.1.6-3.3m-6.5-10.3c1.3 0 2.5.3 3.6.8 1 .5 1.9 1.3 2.7 2.2.7.9 1.3 2 1.7 3.3.4 1.3.6 2.6.6 4s-.2 2.8-.6 4.1c-.4 1.3-1 2.5-1.7 3.5s-1.6 1.8-2.7 2.4c-1.1.6-2.2.9-3.5.9h-6.3v-19.7c-.1-.2-.3-.3-.4-.4-.2-.1-.4-.1-.6-.2-.2 0-.4-.1-.6-.1-.2 0-.4-.1-.5-.1v-.7h8.3zM-323.7 271.8h-.6c-.7 0-1.4 0-2.2.1-.7.1-1.4.2-2 .5-.6.2-1.1.6-1.4 1-.4.5-.6 1.1-.6 1.8 0 .9.3 1.6.8 2.1s1.1.7 1.9.7c1 0 1.7-.2 2.3-.6.5-.4.9-.9 1.2-1.4.3-.6.4-1.1.5-1.7 0-.6.1-1.1.1-1.5v-1m2 5.8c.2.3.5.5.8.6.4.1.7.1.9.2v.7h-3.8v-2.4c-.2.4-.4.8-.8 1.2-.3.3-.7.6-1.1.9l-1.2.6c-.4.1-.8.2-1.3.2-1 0-1.8-.2-2.3-.5-.6-.3-1-.7-1.4-1.1-.3-.4-.5-.9-.6-1.4-.1-.5-.2-.9-.2-1.2 0-1.1.3-2 .8-2.7.5-.7 1.2-1.1 2.1-1.5.8-.3 1.7-.5 2.7-.6 1-.1 1.9-.1 2.8-.1h.4V269c0-.4 0-.7-.1-.9-.2-.6-.5-1.1-.9-1.5-.4-.4-.8-.6-1.2-.8-.4-.2-.9-.3-1.4-.3-.5-.1-1-.1-1.5-.1-.1 0-.3 0-.6.1-.2.1-.5.1-.7.2-.2.1-.5.2-.7.3-.2.1-.4.2-.5.3v-.9c.3-.1.7-.3 1.2-.5s1.2-.3 2-.3 1.5.1 2.2.2c.7.1 1.3.4 1.9.7.6.3 1.1.7 1.5 1.1.4.4.7 1 .9 1.6v9.4h.1zM-316.4 277.6c.2.3.5.5.8.6.4.1.7.1 1 .2v.7h-3.8v-19.7c-.2-.3-.5-.5-.8-.6-.3-.1-.7-.1-.9-.2v-.7h3.8v19.7h-.1zM-313.8 279v-.7c.3 0 .6-.1.9-.2.4-.1.6-.2.8-.6v-18.2c-.2-.3-.5-.5-.8-.6-.3-.1-.7-.1-.9-.2v-.8h3.8v12.7l5.7-5.9h2.2l-6.3 6.4 7.9 8-2.2.1-7.3-7.4v7.4h-3.8zM-291.7 271.8h-.6c-.7 0-1.4 0-2.2.1-.7.1-1.4.2-2 .5-.6.2-1.1.6-1.4 1-.4.5-.5 1.1-.5 1.8 0 .9.2 1.6.7 2.1.5.5 1.1.7 1.9.7 1 0 1.7-.2 2.3-.6.5-.4 1-.9 1.2-1.4.3-.6.4-1.1.5-1.7 0-.6.1-1.1.1-1.5v-1m2.1 5.8c.2.3.5.5.8.6.4.1.7.1.9.2v.7h-3.8v-2.4c-.2.4-.4.8-.8 1.2-.3.3-.7.6-1.1.9l-1.2.6c-.4.1-.8.2-1.3.2-1 0-1.8-.2-2.3-.5-.6-.3-1-.7-1.4-1.1-.3-.4-.5-.9-.6-1.4-.1-.5-.1-.9-.1-1.2 0-1.1.3-2 .8-2.7.5-.7 1.2-1.1 2.1-1.5.8-.3 1.7-.5 2.7-.6 1-.1 1.9-.1 2.8-.1h.4V269c0-.4 0-.7-.1-.9-.2-.6-.5-1.1-.8-1.5-.4-.4-.8-.6-1.2-.8-.4-.2-.9-.3-1.4-.3-.5-.1-1-.1-1.5-.1-.1 0-.3 0-.6.1-.2.1-.5.1-.7.2-.2.1-.5.2-.7.3-.2.1-.4.2-.5.3v-.9c.3-.1.7-.3 1.2-.5s1.2-.3 2-.3 1.5.1 2.2.2c.7.1 1.3.4 1.9.7.6.3 1.1.7 1.5 1.1.4.4.7 1 .9 1.6v9.4h-.1zM-284.2 264.6v2c.3-.2.6-.4 1.1-.7.4-.2.9-.5 1.3-.7.5-.2.9-.4 1.3-.5.4-.1.7-.2.9-.2v1.2c-.2 0-.4 0-.8.1s-.8.3-1.3.6c-.4.3-.9.7-1.3 1.1-.4.5-.8 1.1-1.1 1.8v9.6h-2.1v-12.8c-.2-.3-.5-.5-.8-.5-.3-.1-.7-.1-.9-.2v-.8h3.7zM-276.2 277.6c.2.3.5.5.8.6.4.1.7.1 1 .2v.7h-3.8v-19.7c-.2-.3-.5-.5-.8-.6-.3-.1-.7-.1-.9-.2v-.7h3.8v19.7h-.1zM-265.4 275.3c-.3.9-.7 1.6-1.3 2.2-.6.6-1.3 1-2.1 1.2-.8.2-1.6.3-2.5.3-.8-.1-1.6-.3-2.3-.6v-.9c.4.2 1 .4 1.7.4.7.1 1.4 0 2-.2.7-.2 1.2-.5 1.7-.9s.7-1 .7-1.8c0-.6-.2-1-.5-1.4-.3-.4-.7-.7-1.3-.9-.5-.3-1.1-.5-1.7-.7-.6-.2-1.1-.5-1.7-.8-.5-.3-.9-.7-1.3-1.1-.3-.4-.5-1-.5-1.7s.1-1.3.4-1.8c.2-.5.6-1 1-1.3.4-.3.9-.6 1.5-.8.6-.2 1.2-.3 1.8-.3.8 0 1.5 0 2 .1s.9.2 1.3.3v.8c-.7-.3-1.4-.5-2.1-.5-.7 0-1.3.1-1.9.3-.5.2-1 .6-1.3 1.1-.3.5-.5 1.1-.5 1.9 0 .4.2.8.5 1.1.4.3.8.5 1.4.8.5.2 1.1.5 1.7.7.6.2 1.2.5 1.7.9s.9.8 1.2 1.4c.4.7.5 1.4.4 2.2zM-257.9 260.9c-.5.7-1 .7-1.6.4-.1-.1-.3-.2-.4-.4-.2-.4-.3-.9.2-1.4.4-.4.9-.5 1.4-.2.6.5.7 1 .4 1.6m1.4-1.3c-.1-.4-.3-.9-.8-1.3-.8-.7-1.7-.7-2.7-.2-.3.2-.7.6-.9.9-.5 1-.5 1.9.4 3 .8.8 1.7.9 2.6.5.4-.2.9-.6 1.2-1 .3-.6.3-1.2.2-1.9m.7 13.4c0 .4 0 1.1-.2 1.7-.2.7-.4 1.4-1.1 2.1-.2.2-.3.3-.5.4l-.6.3c-.4.2-1.1.3-1.7.3-.3 0-.6 0-.8-.1-.2-.1-.4-.1-.6-.2-.2-.1-.4-.2-.5-.4-.2-.1-.3-.3-.4-.5-.2-.4-.4-1-.4-1.5 0-.3 0-.5.1-.8.1-.6.3-1 .9-1.5.7-.6 1.5-.8 2.3-1 1.1-.2 2.3-.2 3.5-.2v1.4m1.8-5.6c-.2-.5-.6-1-1.1-1.4-1.2-1-2.4-1.3-3.6-1.5-.5-.1-1-.1-1.5-.1h-.8c-.3 0-.5.1-.6.1-.2 0-.3.1-.6.2-.2.1-.6.2-.8.3-.2.1-.3.1-.4.2v.9c.2-.1.3-.2.6-.3.2-.1.4-.1.5-.2.2-.1.6-.2.9-.3.1 0 .3-.1.4-.1h.6c1.1.1 2.4 0 3.6 1.2.1.1.2.2.3.4.3.4.5.9.6 1.3v2.2c-1.4 0-2.7 0-4.2.2-1.1.2-2.1.4-3.2 1.3l-.6.6c-.2.2-.3.4-.4.7-.1.3-.2.5-.3.9-.1.4-.1 1-.1 1.4 0 .5.2 1.2.5 1.8l.6.9c.3.3.6.5 1 .7.2.1.4.2.6.2.7.2 1.7.3 2.6.1.9-.2 1.8-.6 2.7-1.5.4-.4.6-.8.8-1.2v2.4h3.8v-.7c-.4-.1-.8-.1-1.3-.3-.2-.1-.3-.2-.5-.4V268c.1-.2 0-.4-.1-.6zM-381.1 284.1v19.4h-4.2v-.8c.4 0 .8 0 1.1-.1.1 0 .2-.1.4-.1.1-.1.2-.1.3-.2.1-.1.2-.2.3-.2v-17.9h-1.9v-1.6h1.8v-2.3c0-.9.1-1.7.5-2.6.1-.3.3-.6.5-.9.2-.3.4-.5.6-.8.2-.3.4-.5.7-.7.2-.2.5-.4.8-.6.3-.2.6-.4.8-.5.3-.1.6-.3.9-.4l.9-.3c.9-.1 1.7-.3 2.6-.3.9 0 1.7 0 2.6.1l-1.2 1c-.7-.1-1.5-.1-2.2 0-.4.1-.7.1-1.1.2-.4.1-.7.2-1 .4-.3.2-.7.3-1 .6-.3.2-.6.4-.9.7-.2.2-.3.4-.5.7-.2.2-.3.5-.4.8-.1.3-.2.5-.3.8-.1.7-.2 1.4-.2 2.1v2.1h5.7v1.6h-5.6v-.2zM-346 282.1v9.4h.1l.3-.6c.1-.2.3-.4.4-.5.2-.2.3-.4.5-.5.2-.2.4-.3.6-.4.2-.1.4-.2.7-.3.3-.1.6-.2.8-.3.3-.1.6-.1.9-.1.3 0 .6 0 .9.1.3 0 .6.1.9.2.1.1.3.1.4.2.1.1.3.2.4.3.1.1.3.2.4.3.1.1.2.3.3.4.1.2.3.4.4.7.1.2.2.5.3.7.1.2.1.5.2.7.1.5.2 1.1.2 1.6V301.9c0 .1.1.1.1.2s.1.1.2.2.3.2.5.2c.3.1.6.1.9.2v.7h-3.5V295v-.9c0-.3-.1-.6-.1-.9 0-.2-.1-.4-.1-.6-.1-.2-.1-.4-.2-.6l-.3-.6-.3-.3c-.1-.1-.2-.2-.3-.2-.1-.1-.2-.1-.3-.2-.2-.1-.5-.2-.7-.2-.2 0-.4-.1-.7 0-.2 0-.4 0-.7.1-.2 0-.5.1-.7.2-.1.1-.2.1-.3.2-.1.1-.2.1-.3.2-.1.1-.2.2-.4.3-.1.1-.2.2-.3.4-.1.1-.2.3-.3.4-.1.2-.2.5-.3.7-.1.2-.2.5-.2.7-.1.4-.2.7-.2 1.1 0 .4-.1.7-.1 1.1v7.6h-1.9v-19.8c0-.1-.1-.1-.1-.2l-.1-.1c-.2-.1-.3-.2-.5-.3-.3-.1-.6-.1-.9-.2v-.7h3.4v-.1zM-324.3 292.9c.1.4.2.8.3 1.3.1.4.1.9.2 1.3v.6c-.1.6-.1 1.1-.2 1.7 0 .4-.1.8-.2 1.1-.1.2-.1.4-.2.7-.1.3-.2.5-.3.7-.1.2-.3.5-.4.7-.2.2-.3.5-.5.7l-.6.6c-.2.2-.4.4-.7.5s-.5.3-.8.4c-.2.1-.4.2-.7.2-.2.1-.5.1-.7.1-.3 0-.6.1-1 .1-.3 0-.6 0-1-.1-.2 0-.5-.1-.7-.2-.2-.1-.5-.2-.7-.3-.2-.1-.4-.2-.7-.4-.2-.2-.4-.3-.7-.5l-.6-.6c-.2-.2-.3-.4-.5-.7-.2-.3-.3-.5-.5-.8l-.3-.9c-.1-.4-.3-.8-.3-1.3-.1-.4-.1-.9-.1-1.3v-1.3c0-.3.1-.6.1-.9 0-.3.1-.6.2-.9.1-.4.2-.7.3-1.1.1-.3.3-.6.4-.9.2-.3.3-.6.5-.8.2-.3.4-.5.7-.7l.4-.4c.1-.1.3-.2.5-.3.3-.1.5-.3.8-.4.3-.1.6-.2.9-.2.9-.2 1.9-.2 2.8 0 .2 0 .4.1.6.2.2.1.4.1.6.2.2.1.4.2.5.3.2.1.3.2.5.4l.6.6c.2.2.3.4.5.6.2.2.3.5.4.7l.3.6c.1.2.2.5.3.7m-5.7 9.6c.3 0 .6 0 .9-.2.2-.1.3-.1.4-.2.1-.1.3-.2.4-.2.1-.1.2-.2.4-.3.1-.1.2-.2.4-.3.1-.1.2-.2.3-.4.1-.1.2-.3.3-.4.1-.1.2-.3.3-.4.1-.2.2-.5.3-.7.1-.2.2-.5.3-.7.1-.3.1-.5.2-.8.1-.3.1-.5.1-.8v-.9-.9c-.1-.4-.1-.8-.2-1.2-.1-.4-.2-.8-.4-1.2-.1-.3-.3-.7-.5-1-.1-.1-.2-.3-.3-.4-.1-.1-.2-.3-.3-.4-.1-.2-.3-.3-.4-.4-.2-.1-.3-.3-.5-.4-.6-.3-1.1-.5-1.7-.5h-.5c-.2 0-.3.1-.5.1-.2.1-.3.1-.4.2-.1.1-.3.2-.4.3-.2.1-.3.2-.4.4l-.4.4c-.1.1-.2.3-.3.4-.1.2-.2.3-.3.5-.1.2-.2.3-.2.5-.1.2-.2.5-.3.7-.1.2-.1.5-.2.7-.1.2-.1.5-.2.7 0 .3-.1.5-.1.8v1.6c0 .3.1.6.1.8.1.4.2.8.3 1.1.1.4.3.7.5 1.1.1.2.2.4.4.6.1.2.3.4.4.5.1.2.3.3.4.4.2.1.3.3.5.4.4.2.7.4 1.1.4.2.1.3.1.5.1z"/><path class="st16" d="M-367.2 292.9c.1.3.2.7.3 1 .1.3.1.7.2 1 0 .4.1.8.1 1.2-.1.6-.1 1.1-.2 1.7-.1.5-.1.9-.3 1.4v.1c-.1.3-.2.6-.4.9-.1.3-.3.6-.5.8-.2.2-.3.5-.5.7l-.6.6c-.2.2-.4.4-.7.5-.2.2-.5.3-.8.4-.2.1-.4.2-.7.2-.2.1-.5.1-.7.1-.4 0-.8.1-1.1 0-.4 0-.7-.1-1.1-.1-.3-.1-.5-.1-.8-.3-.3-.1-.5-.2-.8-.4-.2-.1-.5-.3-.7-.5-.3-.2-.5-.5-.8-.8l-.6-.9c-.1-.2-.3-.5-.4-.7-.1-.2-.2-.5-.3-.8-.1-.3-.2-.6-.3-1-.1-.3-.1-.7-.2-1-.1-.6-.1-1.3 0-1.9 0-.4.1-.8.1-1.2l.3-1.2c.1-.2.1-.4.2-.5.1-.3.3-.6.4-.9.2-.3.3-.6.5-.8.2-.3.4-.5.6-.7l.4-.4c.1-.1.3-.2.5-.3.3-.1.5-.3.8-.4.3-.1.6-.2.9-.2.9-.2 1.9-.2 2.8 0 .2 0 .4.1.6.2.2.1.4.1.6.2.2.1.4.2.5.3.2.1.3.2.5.4l.6.6c.2.2.3.4.5.6.2.2.3.5.4.7l.3.6c.3.3.3.6.4.8m-5.6 9.6c.3 0 .6 0 .9-.2.2-.1.3-.1.4-.2.1-.1.3-.2.4-.2.1-.1.2-.2.4-.3.1-.1.2-.2.4-.3.1-.1.2-.2.3-.4.2-.2.3-.5.5-.7.1-.3.3-.5.4-.8.1-.4.3-.8.4-1.2.1-.4.1-.8.2-1.2v-.9-.9c-.1-.4-.1-.8-.2-1.2-.1-.4-.2-.8-.4-1.2-.1-.3-.2-.5-.4-.8-.1-.3-.3-.5-.5-.7-.1-.2-.3-.3-.4-.5-.2-.2-.3-.3-.5-.4-.1-.1-.2-.2-.4-.3-.1-.1-.3-.1-.4-.2-.4-.2-.7-.2-1.1-.2h-.5c-.2 0-.3.1-.5.1-.2.1-.3.1-.4.2-.1.1-.3.2-.4.3-.1.1-.3.2-.4.4l-.4.4c-.1.1-.2.3-.3.4-.1.2-.2.3-.3.5-.1.2-.2.3-.2.5-.1.2-.2.5-.3.7-.1.2-.1.5-.2.7-.1.2-.1.5-.2.7 0 .3-.1.5-.1.8v1.6c0 .3.1.6.1.8.1.4.2.8.3 1.1.1.4.3.7.5 1.1.1.2.2.4.4.6.1.2.3.4.4.5.1.2.3.3.4.4.2.1.3.3.5.4.4.2.7.4 1.1.4.1.2.3.2.5.2zM-363.4 301.9c0 .1.1.1.1.2s.1.1.2.2.3.2.5.2c.3.1.6.1.9.2v.7h-3.5v-19.7c0-.1-.1-.1-.1-.2s-.1-.1-.1-.1c-.2-.1-.3-.2-.5-.2-.3-.1-.6-.1-.9-.2v-.7h3.5v19.6h-.1zM-361 303.2v-.7c.3 0 .6-.1 1-.2.2 0 .3-.1.5-.3l.2-.2v-18.2c0-.1-.1-.1-.1-.2s-.1-.1-.1-.1c-.2-.1-.3-.2-.5-.3-.3-.1-.6-.1-.9-.2v-.8h3.5v12.7l5.2-5.9h2l-5.7 6.4 7.2 8-2 .1-6.7-7.4v7.4h-3.6v-.1zM-327.4 283.5c.3 0 .6.1.9.3.1 0 .1.1.1.1.1.1.1.2.2.3.1.2.2.3.2.5s.1.4 0 .5v.3c-.1.3-.2.6-.5.9-.3.3-.7.4-1 .3-.2 0-.4-.1-.5-.2-.1 0-.1-.1-.2-.1s-.1-.1-.1-.1-.1-.1-.1-.2c-.1-.1-.1-.2-.1-.3 0-.1-.1-.2-.1-.3-.1-.4-.1-.7.1-1.1 0-.1.1-.2.1-.3.1-.1.1-.2.2-.3.1-.2.3-.3.5-.4-.1.1.1.1.3.1zM-332.4 283.5c.3 0 .6.1.9.3.1 0 .1.1.1.1.1.1.1.2.2.3.1.2.2.3.2.5s.1.4 0 .5v.3c0 .2-.1.4-.2.6-.1.1-.1.2-.2.2-.1.1-.2.1-.2.2-.3.2-.7.2-1.1.2-.1 0-.2-.1-.3-.2-.1 0-.1-.1-.2-.1s-.1-.1-.1-.1-.1-.1-.1-.2c-.1-.1-.1-.2-.1-.3 0-.1-.1-.2-.1-.3-.1-.4-.1-.7.1-1.1 0-.1.1-.2.1-.3.1-.1.1-.2.2-.3.1-.2.3-.3.5-.4-.1.1.1.1.3.1zM-313.3 288.9h3.5v.8c-.3.1-.6.1-.9.2-.2.1-.4.2-.5.4l-.1.1V303.7c0 .4-.1.8-.1 1.2-.1.3-.1.6-.2 1-.1.2-.2.5-.3.7-.1.2-.2.5-.4.7-.1.2-.2.4-.4.6-.1.2-.3.3-.5.5s-.3.3-.5.4c-.2.1-.4.2-.6.4-.4.2-.8.3-1.2.4-.4.1-.8.2-1.2.2h-1.4c-.5 0-1-.1-1.5-.2-.2 0-.5-.1-.7-.2-.2 0-.3-.1-.5-.2v-.9c.1.1.3.1.4.2.1 0 .3.1.4.1.4.1.8.1 1.2.1h.5c.4 0 .8-.1 1.2-.2.2-.1.5-.1.7-.2l.6-.3c.2-.1.4-.3.6-.4.2-.1.4-.3.5-.5.1-.1.2-.2.3-.4.1-.1.2-.3.3-.4.2-.3.3-.6.4-1 .1-.3.1-.6.2-.8.1-.8.2-1.6.2-2.5v-1.6c-.1.2-.2.4-.2.5-.1.2-.2.3-.3.5-.1.2-.2.4-.4.6-.1.2-.3.3-.5.5-.1.1-.3.2-.5.3-.2.1-.3.2-.5.3-.5.2-1.1.4-1.6.3-.3 0-.7 0-1-.1-.2 0-.3-.1-.5-.1-.2-.1-.3-.1-.5-.2s-.3-.2-.5-.2c-.2-.1-.3-.2-.4-.3l-.6-.6c-.2-.2-.4-.4-.5-.6-.2-.2-.3-.5-.4-.7-.2-.3-.3-.7-.4-1-.1-.3-.2-.7-.3-1-.1-.4-.2-.8-.2-1.3 0-.4-.1-.9-.1-1.3v-1c0-.3.1-.7.1-1 0-.3.1-.6.2-.9l.3-.9c.1-.2.1-.4.2-.6.1-.2.2-.4.3-.5.1-.2.2-.4.4-.5.1-.2.3-.3.4-.5.1-.1.3-.3.5-.4.2-.1.4-.2.5-.3l.6-.3c.2-.1.4-.1.6-.2.2 0 .5-.1.7-.1H-315.8c.3 0 .6.1.9.2.1.1.3.1.4.2.1.1.2.1.4.2s.3.3.5.4c.2.1.3.3.4.4v-1.3m-4 13.1c.2 0 .5 0 .7-.1.1 0 .3-.1.4-.1.1 0 .3-.1.4-.2.1-.1.2-.1.4-.2.1-.1.3-.2.4-.3.1-.1.2-.2.3-.4.1-.1.2-.3.3-.4.2-.3.3-.6.5-.9l.3-.9c.1-.4.2-.8.2-1.2 0-.4.1-.8.1-1.2v-1c0-.3-.1-.7-.1-1-.1-.4-.1-.8-.2-1.1l-.3-.9c-.1-.1-.1-.3-.2-.4-.1-.1-.2-.3-.3-.4-.1-.1-.2-.2-.3-.4-.1-.1-.2-.2-.4-.3-.1-.1-.3-.2-.4-.3-.1-.1-.3-.1-.4-.2-.1 0-.3-.1-.4-.1-.2 0-.5-.1-.7-.1-.2 0-.5 0-.7.1-.1 0-.3.1-.4.1-.1 0-.3.1-.4.2-.1.1-.2.1-.3.2-.1.1-.3.2-.4.3-.1.1-.2.3-.3.4-.1.1-.2.3-.3.4-.2.3-.3.6-.4.9-.1.3-.2.7-.3 1-.1.6-.2 1.2-.2 1.8v1.6c0 .3.1.6.1.9.1.5.2 1 .4 1.5.1.2.1.3.2.4.1.1.1.3.2.4.1.1.2.3.2.4.1.2.2.3.4.4l.4.4c.1.1.2.1.3.2.3.2.7.3 1.1.3-.1.2 0 .2.1.2zM-301.3 299.6c-.1.2-.1.4-.2.6l-.3.6c-.1.2-.3.4-.4.6l-.6.6c-.2.2-.4.3-.6.4-.2.1-.4.3-.7.4-.2.1-.5.2-.7.2-.3.1-.6.1-.9.2h-1c-.2 0-.5-.1-.7-.1-.2-.1-.5-.1-.7-.2l-.6-.3v-.9l.6.3c.3.1.6.1.9.2h.9c.3 0 .6-.1.9-.2.2 0 .3-.1.5-.2s.3-.1.4-.2c.1-.1.3-.2.4-.3l.2-.2.2-.2c.1-.1.1-.2.2-.3.2-.3.2-.7.3-1v-.8c0-.1-.1-.2-.1-.3l-.3-.6-.3-.3-.3-.3c-.2-.2-.4-.3-.7-.4-.5-.3-1-.5-1.5-.7-.1-.1-.3-.1-.4-.2-.3-.2-.7-.3-1-.6-.2-.1-.4-.3-.5-.4l-.5-.5c-.1-.1-.2-.2-.2-.3-.1-.1-.1-.2-.2-.3-.1-.2-.2-.5-.2-.7v-.9c0-.2 0-.4.1-.6 0-.2.1-.4.2-.6.1-.2.1-.3.2-.5s.2-.3.3-.5c.1-.2.3-.3.4-.5.1-.1.3-.3.5-.4.2-.1.5-.3.7-.4.3-.1.5-.2.8-.2.3-.1.5-.1.8-.1h.8c.3 0 .6 0 .8.1.2 0 .5.1.7.1.2.1.5.1.7.2.1 0 .1 0 .1.1v.8l-.6-.3c-.2-.1-.4-.1-.7-.2-.2 0-.4-.1-.6-.1h-.6c-.2 0-.3 0-.5.1-.1 0-.3.1-.4.1-.1.1-.3.1-.4.2-.1.1-.2.1-.3.2l-.3.3c-.1.1-.2.2-.2.3-.1.1-.1.2-.2.3-.3.6-.4 1.2-.4 1.8 0 .3.1.6.3.8l.3.3c.1.1.3.2.4.3.6.3 1.1.6 1.7.8.2.1.4.2.5.2.2.1.4.2.5.3.2.1.3.2.5.3.2.1.3.2.5.3l.4.4c.1.1.3.3.4.5.1.2.2.3.3.5.1.1.1.3.2.4.2.5.2.9.2 1.4v.6zM-301.3 303.2v-.7c.3 0 .6-.1 1-.2.2 0 .3-.1.5-.3l.2-.2v-18.2c0-.1-.1-.1-.1-.2s-.1-.1-.1-.1c-.2-.1-.3-.2-.5-.3-.3-.1-.6-.1-.9-.2v-.8h3.5v12.7l5.2-5.9h2l-5.7 6.4 7.2 8-2 .1-6.6-7.4v7.4h-3.7v-.1z"/><path class="st16" d="M-278.5 292.9c.1.3.2.7.3 1 .1.3.1.7.2 1 0 .4.1.8.1 1.2-.1.6-.1 1.1-.2 1.7-.1.5-.1.9-.3 1.4 0 0 0 .1-.1.1-.1.3-.2.6-.4.9-.1.3-.3.6-.5.8-.2.2-.3.5-.5.7l-.6.6c-.2.2-.4.4-.7.5-.2.2-.5.3-.8.4-.2.1-.4.2-.7.2-.2.1-.4.1-.7.1-.4 0-.8.1-1.1 0-.4 0-.7-.1-1.1-.1-.3-.1-.5-.1-.8-.3-.3-.1-.5-.2-.8-.4-.2-.1-.5-.3-.7-.5-.3-.2-.5-.5-.8-.8l-.6-.9c-.1-.2-.2-.5-.4-.7-.1-.2-.2-.5-.3-.7-.1-.2-.2-.5-.2-.7-.2-.8-.3-1.7-.3-2.5v-.7c0-.5.1-1 .2-1.5s.3-1 .4-1.4c.1-.3.3-.6.4-.9.2-.3.3-.6.5-.8.2-.3.4-.5.6-.7l.4-.4c.1-.1.3-.2.5-.3.3-.1.5-.3.8-.4s.6-.2.9-.2c.9-.2 1.9-.2 2.8 0 .2 0 .4.1.6.2.2.1.4.1.6.2.2.1.4.2.5.3.2.1.3.2.5.4l.6.6c.2.2.3.4.5.6.2.2.3.5.4.7l.3.6c.3.2.4.5.5.7m-5.7 9.6c.3 0 .6 0 .9-.2.2-.1.3-.1.4-.2.1-.1.3-.2.4-.2.1-.1.2-.2.4-.3l.3-.3c.1-.1.2-.2.3-.4.2-.2.3-.5.5-.7.1-.3.3-.5.4-.8.1-.4.3-.8.4-1.2.1-.4.1-.8.2-1.2v-.9-.9c0-.4-.1-.8-.2-1.2-.1-.4-.2-.8-.4-1.2-.1-.3-.2-.6-.4-.8-.1-.3-.3-.5-.5-.7-.1-.2-.3-.3-.4-.5-.2-.2-.3-.3-.5-.4-.1-.1-.2-.2-.4-.3-.1-.1-.3-.1-.4-.2-.4-.2-.7-.2-1.1-.2h-.5c-.2 0-.3.1-.5.1-.1.1-.3.1-.4.2-.1.1-.3.2-.4.3-.1.1-.3.2-.4.4l-.4.4c-.1.1-.2.3-.3.4-.1.1-.2.3-.3.5-.1.2-.2.3-.2.5-.1.2-.2.5-.3.7-.1.2-.1.5-.2.7-.1.2-.1.5-.2.8 0 .3-.1.5-.1.8v1.6c0 .3.1.6.1.8.1.4.2.8.3 1.1.1.4.3.7.5 1.1l.3.6c.1.2.3.4.4.5.1.2.3.3.4.4.2.1.3.3.5.4.4.2.7.4 1.1.4.4.1.6.1.7.1zM-274.7 301.9c0 .1.1.1.1.2s.1.1.2.2.3.2.5.2c.3.1.6.1.9.2v.7h-3.5v-19.7c0-.1-.1-.1-.1-.2s-.1-.1-.1-.1c-.2-.1-.3-.2-.5-.2-.3-.1-.6-.1-.9-.2v-.7h3.5v19.6h-.1zM-262.9 301.8l.1.1c.2.3.4.4.7.4.3.1.6.1.9.2v.7h-3.5v-2.4c-.1.2-.2.4-.3.5-.1.2-.2.3-.3.5-.1.2-.3.3-.4.4l-.5.5c-.2.1-.4.3-.6.4l-.6.3c-.2.1-.4.1-.6.1h-.6c-.3 0-.6 0-.9-.1-.2 0-.3-.1-.5-.1s-.3-.1-.5-.2-.3-.2-.5-.3c-.2-.1-.3-.2-.4-.4l-.4-.4c-.1-.2-.2-.3-.3-.5-.1-.2-.2-.3-.2-.5-.1-.3-.2-.7-.2-1.1v-.6c0-.5 0-1 .1-1.5 0-.2.1-.3.2-.5s.1-.3.2-.5c.1-.1.1-.2.2-.3l.3-.3c.2-.2.4-.4.6-.5.2-.2.4-.3.7-.4.2-.1.4-.2.5-.2.4-.2.8-.3 1.2-.3.7-.1 1.3-.2 2-.2s1.4-.1 2 0v-1.5c0-.3 0-.6-.1-.9-.1-.3-.2-.6-.4-.9-.1-.1-.1-.2-.2-.3-.1-.1-.2-.2-.2-.3-.1-.1-.2-.3-.4-.4-.1-.1-.3-.2-.4-.3-.1-.1-.3-.2-.5-.2-.2-.1-.4-.1-.5-.2-.2 0-.4-.1-.6-.1-.5-.1-.9-.1-1.4-.1-.1 0-.3 0-.4.1-.3.1-.6.2-1 .4-.3.1-.5.2-.8.4l-.1.1v-.9c.4-.2.7-.3 1.1-.5.4-.2.7-.2 1.1-.3H-267.6c.4 0 .9.1 1.3.2.2.1.5.1.7.2l.6.3c.2.1.4.2.6.4.2.2.4.3.6.5.2.2.3.4.5.6.1.2.3.4.4.7.1.2.2.5.3.7v9.5m-2.1-5.8c-.8 0-1.7 0-2.5.1-.3 0-.6.1-.9.2-.2.1-.4.1-.6.2-.2.1-.3.1-.5.2-.1.1-.3.2-.4.2-.1.1-.2.2-.4.3-.1.1-.2.2-.3.4-.1.1-.2.2-.2.4-.2.3-.2.7-.3 1.1 0 .4 0 .9.1 1.3 0 .2.1.5.3.7 0 .1.1.2.1.2.1.1.1.2.2.2l.2.2c.3.2.6.3.8.4.5.1 1 .1 1.5 0 .1 0 .2 0 .3-.1.1 0 .3-.1.4-.1.1-.1.2-.1.4-.2.1-.1.2-.1.3-.2.1-.1.2-.1.2-.2.1-.1.2-.2.3-.4.1-.1.2-.3.3-.4.1-.1.2-.3.2-.4.1-.2.2-.5.2-.7.1-.2.1-.5.1-.7.2-.9.2-1.8.2-2.7z"/><g><path class="st16" d="M-223.7 257.1c-.2.1-.3.2-.6.4-.2.2-.5.4-.8.6-.3.2-.5.4-.7.6-.2.2-.4.3-.7.5-.2.2-.5.4-.7.6-.4.3-.6.5-.8.8l-.4.4-.5.5c-.4.4-1 1.3-1.6 2-.3.4-.6.7-.8 1-.2.3-.4.6-.5.8l-.1.2h.1c.1 0 .2 0 .4-.1.2 0 .5-.1.8-.1.3 0 .6-.1.9-.1.3 0 .5-.1.9-.1s.9 0 1.3-.1H-223.7c.6 0 1.2.1 1.7.2.5 0 .8 0 1.1-.1.3-.1.5-.3.6-.5.1-.1.2-.3.4-.5.1-.2.3-.4.5-.6.2-.2.3-.3.4-.5.2-.2.3-.4.4-.5l.4-.4c.2-.2.4-.5.5-.7.2-.2.2-.4.4-.5.1-.2.3-.3.6-.6s.6-.7.9-1c.3-.3.5-.5.7-.8.2-.3.5-.6.7-.8l.3-.3v-.1h-.2c-.1 0-.4 0-.7-.1h-1.1c-.4 0-.8 0-1.2-.1-.9-.1-1.9-.2-2.9-.2-.5 0-1-.1-1.4-.1h-1.5l-.6.3M-212.8 258.4l-.4.4c-.1.2-.3.3-.5.6-.2.2-.4.5-.7.9-.3.4-.6.9-.9 1.2-.5.7-.8.9-1 1.3-.2.2-.3.4-.4.6-.1.2-.2.3-.3.6-.1.2-.3.5-.5.7-.2.2-.3.4-.4.6-.1.2-.2.3-.3.4 0 0 0 .1.2.1h.4c.2 0 .4 0 .8.1s1.1.2 1.6.3c.5.1.9.2 1.3.3.4.1.8.1 1.1.2.3 0 .5.1.6.1.4.1.9.3 1.4.5.2.1.4.2.7.3l.9.3c.3.1.6.2.7.3.2.1.3.1.3.1h.1s.1-.1.1-.3c.1-.2.1-.4.2-.6.2-.4.3-.7.4-1 .1-.3.4-.7.5-.9.2-.3.3-.5.4-.8 0-.1.1-.2.1-.3 0-.1.1-.2.1-.3.1-.1.2-.3.3-.4.1-.1.1-.2.2-.2.1-.1.2-.4.3-.6.1-.2.2-.4.4-.6.1-.1.2-.2.2-.3.1-.1.1-.2.2-.4.2-.3.7-.9 1.1-1.3.2-.2.4-.4.5-.6.1-.1.3-.2.3-.2.1-.1.1-.1.1-.2 0 0 0-.1-.1-.1s-.1 0-.6-.1-1.4-.3-2-.4c-.6-.1-1-.1-1.3-.2-.4 0-.7-.1-1.1-.2-.4-.1-.8-.1-1.2-.2-.4-.1-.7-.1-1.2-.2s-1.1-.2-1.5-.2c-.4 0-.5 0-.6.1-.1.1-.2.2-.2.3v.1c-.1 0-.2.1-.3.2M-227.6 268.1H-229.3c-.2 0-.5 0-.9.1-.5 0-1.1.1-1.7.2-.6.1-1 .2-1.4.2-.4 0-.8 0-1 .1-.3.1-.5.2-.6.4l-.3.3-.4.4c-.2.2-.4.3-.6.5-.2.2-.4.3-.5.5-.1.1-.2.2-.3.4-.2.2-.5.5-.7.8-.3.3-.5.6-.7.9l-.6.9c-.2.3-.4.6-.7 1.1l-.9 1.5c-.3.5-.5.8-.6 1.2-.2.4-.3.7-.4.9-.1.2-.1.3-.1.3s0 .1.2.1c.3 0 1-.1 1.4-.1h.8c.3 0 .7 0 1.1-.1.4 0 .9-.1 1.3-.1s.7-.1.9-.1h3.6c.3 0 .5 0 .8.1h.9c.3 0 .7.1 1.1.1.4 0 .9.1 1.2.1h.6c.1 0 .2-.1.3-.3.1-.2.2-.5.3-.8.1-.3.2-.5.4-.8.1-.2.2-.5.3-.7l.3-.6.3-.6c.1-.3.3-.6.4-.8.1-.3.2-.5.3-.7.1-.2.2-.5.3-.7l.3-.6c.1-.2.3-.5.4-.7.1-.2.2-.4.4-.6.1-.3.3-.6.5-.8.2-.3.3-.5.4-.7.2-.2.4-.4.5-.6.1-.2.1-.3.1-.4 0-.1-.1-.1-.3-.2-.2 0-.5-.1-1.1-.1h-3.9M-220.8 270c-.2.3-.3.6-.5.9-.2.2-.3.4-.4.6-.2.2-.3.5-.4.8l-.3.6c-.1.3-.3.6-.5.9-.2.3-.3.6-.4.8l-.4.8c-.2.4-.4 1-.6 1.4-.4.9-.5.9-.7 1.3-.1.2-.2.4-.2.6 0 .2 0 .2.1.3.1 0 .2.1.4.1s.5 0 .8.1c.3 0 .7.1 1 .2.3.1.6.1.8.1.2 0 .3 0 .6.1s.8.2 1.1.3c.4.1.6.1.7.2.2 0 .3 0 .4.1.1 0 .3.1.5.1.5.1 1.2.2 1.9.3.3.1.7.2.9.2.3.1.5.1.7.2.3.1.6.2 1 .3.4.1.8.2 1.2.4.4.1.7.3.9.2.2-.1.3-.4.3-.7v-.9c0-.3.1-.7.1-1 .1-.3.1-.5.2-.7.1-.2.1-.4.2-.8s.1-.8.2-1.2c.1-.4.2-.8.3-1 .1-.3.2-.5.2-.7.1-.2.2-.5.3-.8.1-.3.2-.5.3-.8.1-.3.2-.6.3-.8.1-.2.2-.3.2-.6.1-.3.2-.6.1-.9-.1-.2-.4-.3-.6-.3-.3-.1-.5-.2-.7-.2-.2-.1-.4-.1-.6-.1-.1 0-.2 0-.2-.1-.2-.1-.4-.1-.6-.2-.2-.1-.4-.1-.6-.2l-.9-.3c-.9-.3-1.5-.3-2.2-.5-.3-.1-.5-.1-.9-.2-.3-.1-.7-.1-1.1-.2-.4-.1-.8-.1-1.1-.2-.4-.1-.7-.1-.9 0-.2.1-.4.4-.6.7 0 .2-.1.5-.3.8M-233.9 281.7c-.2 0-.4.1-.6.1h-3.9c-.3 0-.6.1-.9.1h-.8c-.2 0-.3 0-.6.1s-.8.1-1.2.2c-.4.1-.9.1-1.3.2-.4 0-.9.1-1.2.2-.3.1-.5.2-.7.5-.2.3-.4.6-.5.9-.2.3-.3.5-.3.7-.1.2-.2.4-.3.7-.1.3-.3.7-.5 1.2s-.5 1.2-.7 1.6c-.2.5-.3.7-.4.9-.1.3-.1.5-.2.8-.2.8-.6 1.9-.8 2.9-.1.6-.3 1.4-.4 2.1-.1.3-.2.7-.2.9-.1.3-.1.5-.1.7v.6c0 .1 0 .1.1.2 0 0 .1.1.3 0 .2 0 .5-.1.7-.2.5-.1 1-.3 1.6-.4.3-.1.6-.1.8-.2.3 0 .5-.1.7-.1.2 0 .4-.1.7-.1.3 0 .7-.1 1.2-.2s1.2-.1 1.9-.2 1.5-.2 2-.2c.6-.1.9-.1 1.3-.1s.8-.1 1.2-.1c.5 0 1 0 1.4-.1.5 0 .8 0 1.1-.1.3 0 .5 0 .7-.1.2 0 .4-.1.5-.1.1 0 .1-.1.2-.2 0-.1 0-.3.1-.5 0-.2.1-.3.1-.5.1-.4.2-.8.2-1.1 0-.2.1-.3.1-.5 0-.1.1-.3.1-.4 0-.2.1-.4.2-.6.1-.2.2-.5.3-.8l.3-.9.3-.9c.1-.3.1-.5.2-.6 0-.2.1-.3.1-.4 0-.1.1-.3.2-.5.1-.4.3-1.1.6-1.8.1-.3.3-.6.4-.9.1-.3.3-.7.4-1 .1-.3.2-.5.3-.7l.3-.6c.1-.2.1-.3.1-.4 0-.1-.1-.2-.2-.2s-.3-.1-.5-.1h-2.1c-.4 0-.9 0-1.3.1-.5 0-.8.1-1 .1M-227.5 284.2c-.1.4-.3.8-.4 1.3-.2.5-.3 1-.5 1.4-.1.4-.3.8-.4 1.1-.2.6-.3 1-.4 1.5-.1.2-.2.5-.3.8-.1.3-.2.6-.3 1.1-.1.5-.2 1.1-.3 1.5-.1.4-.1.6-.2.9 0 .3-.1.6-.1.8 0 .3-.1.5 0 .6 0 .1.1.2.1.2h1.2c.5 0 1 .1 1.5.1 1 .1 1.8.1 2.7.2.4.1.9.1 1.3.2s.8.1 1.3.2c.4.1.9.1 1.3.2.3.1.6.1.8.2.3.1.6.1 1 .2s.9.2 1.3.3c.8.2 1.1.2 1.6.3.3.1.6.2.8.2.3.1.5.1.8.2.2.1.4.1.7.2.3.1.7.2 1 .4.3.1.6.2.8.3.2.1.3.1.4.1h.1v-.2c0-.1-.1-.3-.1-.5s-.1-.5-.2-.9c0-.4-.1-.9-.1-1.3s-.1-.5-.1-.8c0-.2-.1-.5-.2-.8 0-.3-.1-.6-.1-.8v-.6c0-.3-.1-.6-.1-1v-1.2-1.2-1.9c0-.3 0-.6.1-1 0-.2 0-.4.1-.6.1-.2.2-.4.2-.6 0-.1 0-.2-.1-.2-.1-.1-.3-.1-.6-.2-.5-.2-1.1-.4-1.7-.6-.3-.1-.6-.2-1-.3-.3-.1-.7-.2-1.1-.3-.4-.1-1-.3-1.5-.4-.6-.1-1.2-.3-1.8-.4-.7-.1-1.3-.3-1.9-.4-.6-.1-1-.2-1.5-.2-.5-.1-.9-.2-1.4-.2-.4 0-.9-.1-1.1-.1-.6 0-.6-.1-.8.4-.1.2-.2.6-.4.9-.2.3-.2.5-.4.9"/><path class="st16" d="M-223.1 269.8l-.3.6c-.2.3-.3.5-.4.7-.1.1-.1.2-.2.3-.1.1-.1.3-.2.4-.1.2-.2.3-.3.5-.1.2-.2.4-.3.7-.1.3-.3.6-.4.9-.1.3-.3.7-.5 1.1-.2.4-.4.9-.6 1.5-.2.6-.5 1.2-.7 1.6-.2.4-.3.7-.4.9l-.3.6-.3.6c-.1.2-.2.5-.4.9s-.4 1.1-.6 1.6-.3.9-.5 1.2c-.1.4-.3.7-.4 1.1-.3.7-.5 1.4-.7 2l-.3.9c-.1.3-.2.7-.3.9-.2.6-.3 1-.5 1.5-.1.3-.2.5-.2.8-.2.6-.4 1.4-.5 2.1-.1.4-.1.7-.2 1.1-.1.4-.1.8-.2 1.1-.1.6-.1.7-.2 1 0 .1-.1.3-.1.6-.1.3-.2.7-.3 1-.1.3-.1.5-.2.7 0 .2-.1.4-.1.6 0 .2-.1.5-.1.8-.1.7-.1 1.6-.1 2.3v2.4h-4.4c-.3 0-.5 0-.8-.1-.2 0-.3 0-.6-.1-.3 0-.7-.1-1.1-.1-.2 0-.4-.1-.6-.1-.1 0-.2 0-.3-.1h-.3c-.1 0-.3-.1-.5-.1-.4-.1-1-.2-1.6-.3-.3-.1-.6-.1-.9-.2-.3-.1-.7-.2-1.2-.3-.5-.1-1.1-.3-2-.6-1-.3-2.3-.7-3.2-.9-.9-.2-1.3-.4-1.7-.4-.4-.1-.7-.2-.9-.2h-.2c-.1 0-.3.2-.2.3 0 0 0 .1.1.1.2.1.4.3.6.4.3.2.4.2.6.3.1 0 .2.1.3.1.1 0 .2.1.4.2s.4.2.7.3c.1.1.3.1.4.2.2.1.3.1.6.2.2.1.5.2.8.3.3.1.7.2 1.3.4.7.2 1.7.6 2.6.8.9.3 1.7.5 2.2.7.5.2.8.2 1.1.3.3.1.5.1.7.2.3.1.6.1.9.2.3.1.7.2 1.3.3.6.1 1.3.2 2.1.4.1 0 .2 0 .3.1.1 0 .1 0 .5.1.3.1.9.2 1.4.2.5.1.8.1 1.1.1.3 0 .5.1.7.1h3.1c.2 0 .4.1.6.1.2 0 .3 0 .4.1h6.9c.6 0 1.1 0 1.6-.1.4 0 .9-.1 1.2-.1.7 0 1.1-.1 1.7-.1.3 0 .5-.1.9-.1.3 0 .7-.1.9-.1.3 0 .4-.1.5-.1.3 0 .5-.1.7-.1.1 0 .3 0 .5-.1.3 0 .6-.1.9-.1.6-.1 1-.2 1.4-.2.9-.2 1.7-.3 2.6-.6.2-.1.4-.1.6-.2.3-.1.4-.1.6-.2.1 0 .1 0 .2-.1.1 0 .2-.1.3-.1.2-.1.4-.1.5-.2.3-.1.5-.2.7-.3.1 0 .2-.1.4-.2l.6-.3c.2-.1.4-.2.5-.2.1-.1.3-.1.4-.2.2-.1.3-.2.5-.3.3-.2.5-.3.7-.6.1-.1 0-.2-.1-.3h-.1c-.5.1-1 .2-1.4.4-.9.2-1.5.4-2.2.6-.3.1-.7.2-1 .2-.6.1-.9.2-1.4.3-.2 0-.5.1-.7.1-.3 0-.6.1-1.2.2s-1.6.2-2.3.3c-.7.1-1.1.1-1.5.2-.4 0-.8.1-1.2.1-.4 0-.7 0-1.1.1H-223.2c-1.3 0-2.9 0-4-.1h-4c0-.3 0-.6-.1-.8v-.7-.3-.4-.8-.8-.5-.7-.5c0-.2 0-.5.1-.8 0-.3.1-.5.1-.8 0-.3.1-.6.1-1 .1-.8.3-1.7.4-2.5l.3-1.2.3-1.2c.2-.7.3-1.1.4-1.7.1-.3.2-.6.3-1.1.1-.4.3-.9.4-1.4.1-.5.3-.9.4-1.4.2-.4.3-.9.5-1.4.2-.5.4-1.1.7-1.8.3-.7.5-1.3.8-2.1.3-.8.7-1.6 1.1-2.5.4-.9.8-1.9 1.2-2.7.3-.8.6-1.3.8-1.8.2-.5.4-.9.6-1.2.2-.4.3-.7.5-1 .2-.3.3-.6.5-.9.1-.3.3-.5.4-.7.3-.4.5-.8.7-1.2.1-.2.2-.4.4-.6.1-.2.3-.5.4-.7.3-.5.7-1 1-1.6.2-.3.3-.5.5-.8.2-.3.4-.6.7-1.1.3-.5.8-1.1 1.2-1.8.4-.6.9-1.3 1.2-1.8.3-.5.5-.7.7-.9.4-.5.6-.8.9-1.1.1-.2.3-.4.6-.7.3-.3.7-.8.9-1.1.3-.3.4-.5.5-.6.2-.3.4-.5.5-.7.1-.1.2-.3.2-.4.2-.2.2-.2.2-.3 0-.1.1-.1.2-.3.1-.1.2-.2.4-.5.2-.2.6-.6.8-.9l.6-.6c.1-.1.2-.2.2-.3.2-.2.3-.3.2-.5-.1-.1-.2-.1-.3-.1-.1 0-.2.1-.3.2-.1.1-.2.1-.3.2l-.3.3c-.1.1-.3.2-.4.3l-.2.2c-.1 0-.1.1-.1.1l-.1.1-.4.4c-.2.2-.3.4-.6.7-.3.3-.7.8-1.1 1.2-.3.4-.6.7-.8 1-.3.3-.5.6-.8.9-.3.3-.6.7-1 1.2-.5.5-1.1 1.3-1.5 1.8-.5.5-.7.9-1 1.2-.2.3-.5.6-.6.8-.4.5-.7.9-1 1.3-.8 1-1.4 1.9-2.1 2.9-.1.2-.2.4-.4.5-.1.2-.2.4-.4.6-.2.2-.4.5-.5.8-.2.6-.3.9-.5 1.1"/></g><path class="st17" d="M-335.2 331.2c0-1.2-.2-2.3-.5-3.4s-.8-2-1.4-2.8c-.6-.8-1.3-1.4-2.1-1.8-.8-.5-1.8-.7-2.8-.7h-4v17.9h4c1 0 1.9-.3 2.7-.8.8-.5 1.5-1.2 2.1-2.1.6-.9 1-1.8 1.4-3 .5-1 .6-2.1.6-3.3m-6.5-10.3c1.3 0 2.5.3 3.6.8 1 .5 1.9 1.3 2.7 2.2.7.9 1.3 2 1.7 3.3.4 1.3.6 2.6.6 4s-.2 2.8-.6 4.1c-.4 1.3-1 2.5-1.7 3.5s-1.6 1.8-2.7 2.4c-1.1.6-2.2.9-3.5.9h-6.3v-19.7c-.1-.2-.3-.3-.4-.4-.2-.1-.4-.1-.6-.2-.2 0-.4-.1-.6-.1-.2 0-.4-.1-.5-.1v-.7h8.3zM-323.7 334.8h-.6c-.7 0-1.4 0-2.2.1-.7.1-1.4.2-2 .5-.6.2-1.1.6-1.4 1-.4.5-.6 1.1-.6 1.8 0 .9.3 1.6.8 2.1s1.1.7 1.9.7c1 0 1.7-.2 2.3-.6.5-.4.9-.9 1.2-1.4.3-.6.4-1.1.5-1.7 0-.6.1-1.1.1-1.5v-1m2 5.8c.2.3.5.5.8.6.4.1.7.1.9.2v.7h-3.8v-2.4c-.2.4-.4.8-.8 1.2-.3.3-.7.6-1.1.9l-1.2.6c-.4.1-.8.2-1.3.2-1 0-1.8-.2-2.3-.5-.6-.3-1-.7-1.4-1.1-.3-.4-.5-.9-.6-1.4-.1-.5-.2-.9-.2-1.2 0-1.1.3-2 .8-2.7.5-.7 1.2-1.1 2.1-1.5.8-.3 1.7-.5 2.7-.6 1-.1 1.9-.1 2.8-.1h.4V332c0-.4 0-.7-.1-.9-.2-.6-.5-1.1-.9-1.5-.4-.4-.8-.6-1.2-.8-.4-.2-.9-.3-1.4-.3-.5-.1-1-.1-1.5-.1-.1 0-.3 0-.6.1-.2.1-.5.1-.7.2-.2.1-.5.2-.7.3-.2.1-.4.2-.5.3v-.9c.3-.1.7-.3 1.2-.5s1.2-.3 2-.3 1.5.1 2.2.2c.7.1 1.3.4 1.9.7.6.3 1.1.7 1.5 1.1.4.4.7 1 .9 1.6v9.4h.1zM-316.4 340.6c.2.3.5.5.8.6.4.1.7.1 1 .2v.7h-3.8v-19.7c-.2-.3-.5-.5-.8-.6-.3-.1-.7-.1-.9-.2v-.7h3.8v19.7h-.1zM-313.8 342v-.7c.3 0 .6-.1.9-.2.4-.1.6-.2.8-.6v-18.2c-.2-.3-.5-.5-.8-.6-.3-.1-.7-.1-.9-.2v-.8h3.8v12.7l5.7-5.9h2.2l-6.3 6.4 7.9 8-2.2.1-7.3-7.4v7.4h-3.8zM-291.7 334.8h-.6c-.7 0-1.4 0-2.2.1-.7.1-1.4.2-2 .5-.6.2-1.1.6-1.4 1-.4.5-.5 1.1-.5 1.8 0 .9.2 1.6.7 2.1.5.5 1.1.7 1.9.7 1 0 1.7-.2 2.3-.6.5-.4 1-.9 1.2-1.4.3-.6.4-1.1.5-1.7 0-.6.1-1.1.1-1.5v-1m2.1 5.8c.2.3.5.5.8.6.4.1.7.1.9.2v.7h-3.8v-2.4c-.2.4-.4.8-.8 1.2-.3.3-.7.6-1.1.9l-1.2.6c-.4.1-.8.2-1.3.2-1 0-1.8-.2-2.3-.5-.6-.3-1-.7-1.4-1.1-.3-.4-.5-.9-.6-1.4-.1-.5-.1-.9-.1-1.2 0-1.1.3-2 .8-2.7.5-.7 1.2-1.1 2.1-1.5.8-.3 1.7-.5 2.7-.6 1-.1 1.9-.1 2.8-.1h.4V332c0-.4 0-.7-.1-.9-.2-.6-.5-1.1-.8-1.5-.4-.4-.8-.6-1.2-.8-.4-.2-.9-.3-1.4-.3-.5-.1-1-.1-1.5-.1-.1 0-.3 0-.6.1-.2.1-.5.1-.7.2-.2.1-.5.2-.7.3-.2.1-.4.2-.5.3v-.9c.3-.1.7-.3 1.2-.5s1.2-.3 2-.3 1.5.1 2.2.2c.7.1 1.3.4 1.9.7.6.3 1.1.7 1.5 1.1.4.4.7 1 .9 1.6v9.4h-.1zM-284.2 327.6v2c.3-.2.6-.4 1.1-.7.4-.2.9-.5 1.3-.7.5-.2.9-.4 1.3-.5.4-.1.7-.2.9-.2v1.2c-.2 0-.4 0-.8.1s-.8.3-1.3.6c-.4.3-.9.7-1.3 1.1-.4.5-.8 1.1-1.1 1.8v9.6h-2.1v-12.8c-.2-.3-.5-.5-.8-.5-.3-.1-.7-.1-.9-.2v-.8h3.7zM-276.2 340.6c.2.3.5.5.8.6.4.1.7.1 1 .2v.7h-3.8v-19.7c-.2-.3-.5-.5-.8-.6-.3-.1-.7-.1-.9-.2v-.7h3.8v19.7h-.1zM-265.4 338.3c-.3.9-.7 1.6-1.3 2.2-.6.6-1.3 1-2.1 1.2-.8.2-1.6.3-2.5.3-.8-.1-1.6-.3-2.3-.6v-.9c.4.2 1 .4 1.7.4.7.1 1.4 0 2-.2.7-.2 1.2-.5 1.7-.9s.7-1 .7-1.8c0-.6-.2-1-.5-1.4-.3-.4-.7-.7-1.3-.9-.5-.3-1.1-.5-1.7-.7-.6-.2-1.1-.5-1.7-.8-.5-.3-.9-.7-1.3-1.1-.3-.4-.5-1-.5-1.7s.1-1.3.4-1.8c.2-.5.6-1 1-1.3.4-.3.9-.6 1.5-.8.6-.2 1.2-.3 1.8-.3.8 0 1.5 0 2 .1s.9.2 1.3.3v.8c-.7-.3-1.4-.5-2.1-.5-.7 0-1.3.1-1.9.3-.5.2-1 .6-1.3 1.1-.3.5-.5 1.1-.5 1.9 0 .4.2.8.5 1.1.4.3.8.5 1.4.8.5.2 1.1.5 1.7.7.6.2 1.2.5 1.7.9s.9.8 1.2 1.4c.4.7.5 1.4.4 2.2zM-257.9 323.9c-.5.7-1 .7-1.6.4-.1-.1-.3-.2-.4-.4-.2-.4-.3-.9.2-1.4.4-.4.9-.5 1.4-.2.6.5.7 1 .4 1.6m1.4-1.3c-.1-.4-.3-.9-.8-1.3-.8-.7-1.7-.7-2.7-.2-.3.2-.7.6-.9.9-.5 1-.5 1.9.4 3 .8.8 1.7.9 2.6.5.4-.2.9-.6 1.2-1 .3-.6.3-1.2.2-1.9m.7 13.4c0 .4 0 1.1-.2 1.7-.2.7-.4 1.4-1.1 2.1-.2.2-.3.3-.5.4l-.6.3c-.4.2-1.1.3-1.7.3-.3 0-.6 0-.8-.1-.2-.1-.4-.1-.6-.2-.2-.1-.4-.2-.5-.4-.2-.1-.3-.3-.4-.5-.2-.4-.4-1-.4-1.5 0-.3 0-.5.1-.8.1-.6.3-1 .9-1.5.7-.6 1.5-.8 2.3-1 1.1-.2 2.3-.2 3.5-.2v1.4m1.8-5.6c-.2-.5-.6-1-1.1-1.4-1.2-1-2.4-1.3-3.6-1.5-.5-.1-1-.1-1.5-.1h-.8c-.3 0-.5.1-.6.1-.2 0-.3.1-.6.2-.2.1-.6.2-.8.3-.2.1-.3.1-.4.2v.9c.2-.1.3-.2.6-.3.2-.1.4-.1.5-.2.2-.1.6-.2.9-.3.1 0 .3-.1.4-.1h.6c1.1.1 2.4 0 3.6 1.2.1.1.2.2.3.4.3.4.5.9.6 1.3v2.2c-1.4 0-2.7 0-4.2.2-1.1.2-2.1.4-3.2 1.3l-.6.6c-.2.2-.3.4-.4.7-.1.3-.2.5-.3.9-.1.4-.1 1-.1 1.4 0 .5.2 1.2.5 1.8l.6.9c.3.3.6.5 1 .7.2.1.4.2.6.2.7.2 1.7.3 2.6.1.9-.2 1.8-.6 2.7-1.5.4-.4.6-.8.8-1.2v2.4h3.8v-.7c-.4-.1-.8-.1-1.3-.3-.2-.1-.3-.2-.5-.4V331c.1-.2 0-.4-.1-.6zM-381.1 347.1v19.4h-4.2v-.8c.4 0 .8 0 1.1-.1.1 0 .2-.1.4-.1.1-.1.2-.1.3-.2.1-.1.2-.2.3-.2v-17.9h-1.9v-1.6h1.8v-2.3c0-.9.1-1.7.5-2.6.1-.3.3-.6.5-.9.2-.3.4-.5.6-.8.2-.3.4-.5.7-.7.2-.2.5-.4.8-.6.3-.2.6-.4.8-.5.3-.1.6-.3.9-.4l.9-.3c.9-.1 1.7-.3 2.6-.3.9 0 1.7 0 2.6.1l-1.2 1c-.7-.1-1.5-.1-2.2 0-.4.1-.7.1-1.1.2-.4.1-.7.2-1 .4-.3.2-.7.3-1 .6-.3.2-.6.4-.9.7-.2.2-.3.4-.5.7-.2.2-.3.5-.4.8-.1.3-.2.5-.3.8-.1.7-.2 1.4-.2 2.1v2.1h5.7v1.6h-5.6v-.2zM-346 345.1v9.4h.1l.3-.6c.1-.2.3-.4.4-.5.2-.2.3-.4.5-.5.2-.2.4-.3.6-.4.2-.1.4-.2.7-.4.3-.1.6-.2.8-.3.3-.1.6-.1.9-.1.3 0 .6 0 .9.1.3 0 .6.1.9.2.1.1.3.1.4.2.1.1.3.2.4.3.1.1.3.2.4.3.1.1.2.3.3.4.1.2.3.4.4.7.1.2.2.5.3.7.1.2.1.5.2.7.1.5.2 1.1.2 1.6V364.8c0 .1.1.1.1.2s.1.1.2.2.3.2.5.2c.3.1.6.1.9.2v.7h-3.5v-8.4-.9c0-.3-.1-.6-.1-.9 0-.2-.1-.4-.1-.6-.1-.2-.1-.4-.2-.6l-.3-.6-.3-.3c-.1-.1-.2-.2-.3-.2-.1-.1-.2-.1-.3-.2-.2-.1-.5-.2-.7-.2-.2 0-.4-.1-.7 0-.2 0-.4 0-.7.1-.2 0-.5.1-.7.2-.1.1-.2.1-.3.2-.1.1-.2.1-.3.2-.1.1-.2.2-.4.3-.1.1-.2.2-.3.4-.1.1-.2.3-.3.4-.1.2-.2.5-.3.7-.1.2-.2.5-.2.7-.1.4-.2.7-.2 1.1 0 .4-.1.7-.1 1.1v7.6h-1.9v-19.8c0-.1-.1-.1-.1-.2l-.1-.1c-.2-.1-.3-.2-.5-.3-.3-.1-.6-.1-.9-.2v-.7h3.4zM-324.3 355.9c.1.4.2.8.3 1.3.1.4.1.9.2 1.3v.6c-.1.6-.1 1.1-.2 1.7 0 .4-.1.8-.2 1.1-.1.2-.1.4-.2.7-.1.3-.2.5-.3.7-.1.2-.3.5-.4.7-.2.2-.3.5-.5.7l-.6.6c-.2.2-.4.4-.7.5s-.5.3-.8.4c-.2.1-.4.2-.7.2-.2.1-.5.1-.7.1-.3 0-.6.1-1 .1-.3 0-.6 0-1-.1-.2 0-.5-.1-.7-.2-.2-.1-.5-.2-.7-.3-.2-.1-.4-.2-.7-.4-.2-.2-.4-.3-.7-.5l-.6-.6c-.2-.2-.3-.4-.5-.7-.2-.3-.3-.5-.5-.8l-.3-.9c-.1-.4-.3-.8-.3-1.3-.1-.4-.1-.9-.1-1.3v-1.3c0-.3.1-.6.1-.9 0-.3.1-.6.2-.9.1-.4.2-.7.3-1.1.1-.3.3-.6.4-.9.2-.3.3-.6.5-.8.2-.3.4-.5.7-.7l.4-.4c.1-.1.3-.2.5-.3.3-.1.5-.3.8-.4.3-.1.6-.2.9-.2.9-.2 1.9-.2 2.8 0 .2 0 .4.1.6.2.2.1.4.1.6.2.2.1.4.2.5.3.2.1.3.2.5.4l.6.6c.2.2.3.4.5.6.2.2.3.5.4.7l.3.6c.1.2.2.5.3.7m-5.7 9.6c.3 0 .6 0 .9-.2.2-.1.3-.1.4-.2.1-.1.3-.2.4-.2.1-.1.2-.2.4-.3.1-.1.2-.2.4-.3.1-.1.2-.2.3-.4.1-.1.2-.3.3-.4.1-.1.2-.3.3-.4.1-.2.2-.5.3-.7.1-.2.2-.5.3-.7.1-.3.1-.5.2-.8.1-.3.1-.5.1-.8v-.9-.9c-.1-.4-.1-.8-.2-1.2-.1-.4-.2-.8-.4-1.2-.1-.3-.3-.7-.5-1-.1-.1-.2-.3-.3-.4-.1-.1-.2-.3-.3-.4-.1-.2-.3-.3-.4-.4-.2-.1-.3-.3-.5-.4-.6-.3-1.1-.5-1.7-.5h-.5c-.2 0-.3.1-.5.1-.2.1-.3.1-.4.2-.1.1-.3.2-.4.3-.2.1-.3.2-.4.4l-.4.4c-.1.1-.2.3-.3.4-.1.2-.2.3-.3.5-.1.2-.2.3-.2.5-.1.2-.2.5-.3.7-.1.2-.1.5-.2.7-.1.2-.1.5-.2.7 0 .3-.1.5-.1.8v1.6c0 .3.1.6.1.8.1.4.2.8.3 1.1.1.4.3.7.5 1.1.1.2.2.4.4.6.1.2.3.4.4.5.1.2.3.3.4.4.2.1.3.3.5.4.4.2.7.4 1.1.4.2.1.3.1.5.1z"/><path class="st17" d="M-367.2 355.9c.1.3.2.7.3 1 .1.3.1.7.2 1 0 .4.1.8.1 1.2-.1.6-.1 1.1-.2 1.7-.1.5-.1.9-.3 1.4v.1c-.1.3-.2.6-.4.9-.1.3-.3.6-.5.8-.2.2-.3.5-.5.7l-.6.6c-.2.2-.4.4-.7.5-.2.2-.5.3-.8.4-.2.1-.4.2-.7.2-.2.1-.5.1-.7.1-.4 0-.8.1-1.1 0-.4 0-.7-.1-1.1-.1-.3-.1-.5-.1-.8-.3-.3-.1-.5-.2-.8-.4-.2-.1-.5-.3-.7-.5-.3-.2-.5-.5-.8-.8l-.6-.9c-.1-.2-.3-.5-.4-.7-.1-.2-.2-.5-.3-.8-.1-.3-.2-.6-.3-1-.1-.3-.1-.7-.2-1-.1-.6-.1-1.3 0-1.9 0-.4.1-.8.1-1.2l.3-1.2c.1-.2.1-.4.2-.5.1-.3.3-.6.4-.9.2-.3.3-.6.5-.8.2-.3.4-.5.6-.7l.4-.4c.1-.1.3-.2.5-.3.3-.1.5-.3.8-.4.3-.1.6-.2.9-.2.9-.2 1.9-.2 2.8 0 .2 0 .4.1.6.2.2.1.4.1.6.2.2.1.4.2.5.3.2.1.3.2.5.4l.6.6c.2.2.3.4.5.6.2.2.3.5.4.7l.3.6c.3.3.3.6.4.8m-5.6 9.6c.3 0 .6 0 .9-.2.2-.1.3-.1.4-.2.1-.1.3-.2.4-.2.1-.1.2-.2.4-.3.1-.1.2-.2.4-.3.1-.1.2-.2.3-.4.2-.2.3-.5.5-.7.1-.3.3-.5.4-.8.1-.4.3-.8.4-1.2.1-.4.1-.8.2-1.2v-.9-.9c-.1-.4-.1-.8-.2-1.2-.1-.4-.2-.8-.4-1.2-.1-.3-.2-.5-.4-.8-.1-.3-.3-.5-.5-.7-.1-.2-.3-.3-.4-.5-.2-.2-.3-.3-.5-.4-.1-.1-.2-.2-.4-.3-.1-.1-.3-.1-.4-.2-.4-.2-.7-.2-1.1-.2h-.5c-.2 0-.3.1-.5.1-.2.1-.3.1-.4.2-.1.1-.3.2-.4.3-.1.1-.3.2-.4.4l-.4.4c-.1.1-.2.3-.3.4-.1.2-.2.3-.3.5-.1.2-.2.3-.2.5-.1.2-.2.5-.3.7-.1.2-.1.5-.2.7-.1.2-.1.5-.2.7 0 .3-.1.5-.1.8v1.6c0 .3.1.6.1.8.1.4.2.8.3 1.1.1.4.3.7.5 1.1.1.2.2.4.4.6.1.2.3.4.4.5.1.2.3.3.4.4.2.1.3.3.5.4.4.2.7.4 1.1.4.1.2.3.2.5.2zM-363.4 364.9c0 .1.1.1.1.2s.1.1.2.2.3.2.5.2c.3.1.6.1.9.2v.7h-3.5v-19.7c0-.1-.1-.1-.1-.2s-.1-.1-.1-.1c-.2-.1-.3-.2-.5-.2-.3-.1-.6-.1-.9-.2v-.7h3.5v19.6h-.1zM-361 366.2v-.7c.3 0 .6-.1 1-.2.2 0 .3-.1.5-.3l.2-.2v-18.2c0-.1-.1-.1-.1-.2s-.1-.1-.1-.1c-.2-.1-.3-.2-.5-.3-.3-.1-.6-.1-.9-.2v-.8h3.5v12.7l5.2-5.9h2l-5.7 6.4 7.2 8-2 .1-6.7-7.4v7.4h-3.6v-.1zM-327.4 346.5c.3 0 .6.1.9.3.1 0 .1.1.1.1.1.1.1.2.2.3.1.2.2.3.2.5s.1.4 0 .5v.3c-.1.3-.2.6-.5.9-.3.3-.7.4-1 .3-.2 0-.4-.1-.5-.2-.1 0-.1-.1-.2-.1s-.1-.1-.1-.1-.1-.1-.1-.2c-.1-.1-.1-.2-.1-.3 0-.1-.1-.2-.1-.3-.1-.4-.1-.7.1-1.1 0-.1.1-.2.1-.3.1-.1.1-.2.2-.3.1-.2.3-.3.5-.4-.1.1.1.1.3.1zM-332.4 346.5c.3 0 .6.1.9.3.1 0 .1.1.1.1.1.1.1.2.2.3.1.2.2.3.2.5s.1.4 0 .5v.3c0 .2-.1.4-.2.6-.1.1-.1.2-.2.2-.1.1-.2.1-.2.2-.3.2-.7.2-1.1.2-.1 0-.2-.1-.3-.2-.1 0-.1-.1-.2-.1s-.1-.1-.1-.1-.1-.1-.1-.2c-.1-.1-.1-.2-.1-.3 0-.1-.1-.2-.1-.3-.1-.4-.1-.7.1-1.1 0-.1.1-.2.1-.3.1-.1.1-.2.2-.3.1-.2.3-.3.5-.4-.1.1.1.1.3.1zM-313.3 351.9h3.5v.8c-.3.1-.6.1-.9.2-.2.1-.4.2-.5.4l-.1.1V366.7c0 .4-.1.8-.1 1.2-.1.3-.1.6-.2 1-.1.2-.2.5-.3.7-.1.2-.2.5-.4.7-.1.2-.2.4-.4.6-.1.2-.3.3-.5.5s-.3.3-.5.4c-.2.1-.4.2-.6.4-.4.2-.8.3-1.2.4-.4.1-.8.2-1.2.2h-1.4c-.5 0-1-.1-1.5-.2-.2 0-.5-.1-.7-.2-.2 0-.3-.1-.5-.2v-.9c.1.1.3.1.4.2.1 0 .3.1.4.1.4.1.8.1 1.2.1h.5c.4 0 .8-.1 1.2-.2.2-.1.5-.1.7-.2l.6-.3c.2-.1.4-.3.6-.4.2-.1.4-.3.5-.5.1-.1.2-.2.3-.4.1-.1.2-.3.3-.4.2-.3.3-.6.4-1 .1-.3.1-.6.2-.8.1-.8.2-1.6.2-2.5v-1.6c-.1.2-.2.4-.2.5-.1.2-.2.3-.3.5-.1.2-.2.4-.4.6-.1.2-.3.3-.5.5-.1.1-.3.2-.5.3-.2.1-.3.2-.5.3-.5.2-1.1.4-1.6.3-.3 0-.7 0-1-.1-.2 0-.3-.1-.5-.1-.2-.1-.3-.1-.5-.2s-.3-.2-.5-.2c-.2-.1-.3-.2-.4-.3l-.6-.6c-.2-.2-.4-.4-.5-.6-.2-.2-.3-.5-.4-.7-.2-.3-.3-.7-.4-1-.1-.3-.2-.7-.3-1-.1-.4-.2-.8-.2-1.3 0-.4-.1-.9-.1-1.3v-1c0-.3.1-.7.1-1 0-.3.1-.6.2-.9l.3-.9c.1-.2.1-.4.2-.6.1-.2.2-.4.3-.5.1-.2.2-.4.4-.5.1-.2.3-.3.4-.5.1-.1.3-.3.5-.4.2-.1.4-.2.5-.3l.6-.3c.2-.1.4-.1.6-.2.2 0 .5-.1.7-.1H-315.8c.3 0 .6.1.9.2.1.1.3.1.4.2.1.1.2.1.4.2s.3.3.5.4c.2.1.3.3.4.4v-1.3m-4 13.1c.2 0 .5 0 .7-.1.1 0 .3-.1.4-.1.1 0 .3-.1.4-.2.1-.1.2-.1.4-.2.1-.1.3-.2.4-.3.1-.1.2-.2.3-.4.1-.1.2-.3.3-.4.2-.3.3-.6.5-.9l.3-.9c.1-.4.2-.8.2-1.2 0-.4.1-.8.1-1.2v-1c0-.3-.1-.7-.1-1-.1-.4-.1-.8-.2-1.1l-.3-.9c-.1-.1-.1-.3-.2-.4-.1-.1-.2-.3-.3-.4-.1-.1-.2-.2-.3-.4-.1-.1-.2-.2-.4-.3-.1-.1-.3-.2-.4-.3-.1-.1-.3-.1-.4-.2-.1 0-.3-.1-.4-.1-.2 0-.5-.1-.7-.1-.2 0-.5 0-.7.1-.1 0-.3.1-.4.1-.1 0-.3.1-.4.2-.1.1-.2.1-.3.2-.1.1-.3.2-.4.3-.1.1-.2.3-.3.4-.1.1-.2.3-.3.4-.2.3-.3.6-.4.9-.1.3-.2.7-.3 1-.1.6-.2 1.2-.2 1.8v1.6c0 .3.1.6.1.9.1.5.2 1 .4 1.5.1.2.1.3.2.4.1.1.1.3.2.4.1.1.2.3.2.4.1.2.2.3.4.4l.4.4c.1.1.2.1.3.2.3.2.7.3 1.1.3-.1.2 0 .2.1.2zM-301.3 362.6c-.1.2-.1.4-.2.6l-.3.6c-.1.2-.3.4-.4.6l-.6.6c-.2.2-.4.3-.6.4-.2.1-.4.3-.7.4-.2.1-.5.2-.7.2-.3.1-.6.1-.9.2h-1c-.2 0-.5-.1-.7-.1-.2-.1-.5-.1-.7-.2l-.6-.3v-.9l.6.3c.3.1.6.1.9.2h.9c.3 0 .6-.1.9-.2.2 0 .3-.1.5-.2s.3-.1.4-.2c.1-.1.3-.2.4-.3l.2-.2.2-.2c.1-.1.1-.2.2-.3.2-.3.2-.7.3-1v-.8c0-.1-.1-.2-.1-.3l-.3-.6-.3-.3-.3-.3c-.2-.2-.4-.3-.7-.4-.5-.3-1-.5-1.5-.7-.1-.1-.3-.1-.4-.2-.3-.2-.7-.3-1-.6-.2-.1-.4-.3-.5-.4l-.5-.5c-.1-.1-.2-.2-.2-.3-.1-.1-.1-.2-.2-.3-.1-.2-.2-.5-.2-.7v-.9c0-.2 0-.4.1-.6 0-.2.1-.4.2-.6.1-.2.1-.3.2-.5s.2-.3.3-.5c.1-.2.3-.3.4-.5.1-.1.3-.3.5-.4.2-.1.5-.3.7-.4.3-.1.5-.2.8-.2.3-.1.5-.1.8-.1h.8c.3 0 .6 0 .8.1.2 0 .5.1.7.1.2.1.5.1.7.2.1 0 .1 0 .1.1v.8l-.6-.3c-.2-.1-.4-.1-.7-.2-.2 0-.4-.1-.6-.1h-.6c-.2 0-.3 0-.5.1-.1 0-.3.1-.4.1-.1.1-.3.1-.4.2-.1.1-.2.1-.3.2l-.3.3c-.1.1-.2.2-.2.3-.1.1-.1.2-.2.3-.3.6-.4 1.2-.4 1.8 0 .3.1.6.3.8l.3.3c.1.1.3.2.4.3.6.3 1.1.6 1.7.8.2.1.4.2.5.2.2.1.4.2.5.3.2.1.3.2.5.3.2.1.3.2.5.3l.4.4c.1.1.3.3.4.5.1.2.2.3.3.5.1.1.1.3.2.4.2.5.2.9.2 1.4v.6zM-301.3 366.2v-.7c.3 0 .6-.1 1-.2.2 0 .3-.1.5-.3l.2-.2v-18.2c0-.1-.1-.1-.1-.2s-.1-.1-.1-.1c-.2-.1-.3-.2-.5-.3-.3-.1-.6-.1-.9-.2v-.8h3.5v12.7l5.2-5.9h2l-5.7 6.4 7.2 8-2 .1-6.6-7.4v7.4h-3.7v-.1z"/><path class="st17" d="M-278.5 355.9c.1.3.2.7.3 1 .1.3.1.7.2 1 0 .4.1.8.1 1.2-.1.6-.1 1.1-.2 1.7-.1.5-.1.9-.3 1.4 0 0 0 .1-.1.1-.1.3-.2.6-.4.9-.1.3-.3.6-.5.8-.2.2-.3.5-.5.7l-.6.6c-.2.2-.4.4-.7.5-.2.2-.5.3-.8.4-.2.1-.4.2-.7.2-.2.1-.4.1-.7.1-.4 0-.8.1-1.1 0-.4 0-.7-.1-1.1-.1-.3-.1-.5-.1-.8-.3-.3-.1-.5-.2-.8-.4-.2-.1-.5-.3-.7-.5-.3-.2-.5-.5-.8-.8l-.6-.9c-.1-.2-.2-.5-.4-.7-.1-.2-.2-.5-.3-.7-.1-.2-.2-.5-.2-.7-.2-.8-.3-1.7-.3-2.5v-.7c0-.5.1-1 .2-1.5s.3-1 .4-1.4c.1-.3.3-.6.4-.9.2-.3.3-.6.5-.8.2-.3.4-.5.6-.7l.4-.4c.1-.1.3-.2.5-.3.3-.1.5-.3.8-.4s.6-.2.9-.2c.9-.2 1.9-.2 2.8 0 .2 0 .4.1.6.2.2.1.4.1.6.2.2.1.4.2.5.3.2.1.3.2.5.4l.6.6c.2.2.3.4.5.6.2.2.3.5.4.7l.3.6c.3.2.4.5.5.7m-5.7 9.6c.3 0 .6 0 .9-.2.2-.1.3-.1.4-.2.1-.1.3-.2.4-.2.1-.1.2-.2.4-.3l.3-.3c.1-.1.2-.2.3-.4.2-.2.3-.5.5-.7.1-.3.3-.5.4-.8.1-.4.3-.8.4-1.2.1-.4.1-.8.2-1.2v-.9-.9c0-.4-.1-.8-.2-1.2-.1-.4-.2-.8-.4-1.2-.1-.3-.2-.6-.4-.8-.1-.3-.3-.5-.5-.7-.1-.2-.3-.3-.4-.5-.2-.2-.3-.3-.5-.4-.1-.1-.2-.2-.4-.3-.1-.1-.3-.1-.4-.2-.4-.2-.7-.2-1.1-.2h-.5c-.2 0-.3.1-.5.1-.1.1-.3.1-.4.2-.1.1-.3.2-.4.3-.1.1-.3.2-.4.4l-.4.4c-.1.1-.2.3-.3.4-.1.1-.2.3-.3.5-.1.2-.2.3-.2.5-.1.2-.2.5-.3.7-.1.2-.1.5-.2.7-.1.2-.1.5-.2.8 0 .3-.1.5-.1.8v1.6c0 .3.1.6.1.8.1.4.2.8.3 1.1.1.4.3.7.5 1.1l.3.6c.1.2.3.4.4.5.1.2.3.3.4.4.2.1.3.3.5.4.4.2.7.4 1.1.4.4.1.6.1.7.1zM-274.7 364.9c0 .1.1.1.1.2s.1.1.2.2.3.2.5.2c.3.1.6.1.9.2v.7h-3.5v-19.7c0-.1-.1-.1-.1-.2s-.1-.1-.1-.1c-.2-.1-.3-.2-.5-.2-.3-.1-.6-.1-.9-.2v-.7h3.5v19.6h-.1zM-262.9 364.8l.1.1c.2.3.4.4.7.4.3.1.6.1.9.2v.7h-3.5v-2.4c-.1.2-.2.4-.3.5-.1.2-.2.3-.3.5-.1.2-.3.3-.4.4l-.5.5c-.2.1-.4.3-.6.4l-.6.3c-.2.1-.4.1-.6.1h-.6c-.3 0-.6 0-.9-.1-.2 0-.3-.1-.5-.1s-.3-.1-.5-.2-.3-.2-.5-.3c-.2-.1-.3-.2-.4-.4l-.4-.4c-.1-.2-.2-.3-.3-.5-.1-.2-.2-.3-.2-.5-.1-.3-.2-.7-.2-1.1v-.6c0-.5 0-1 .1-1.5 0-.2.1-.3.2-.5s.1-.3.2-.5c.1-.1.1-.2.2-.3l.3-.3c.2-.2.4-.4.6-.5.2-.2.4-.3.7-.4.2-.1.4-.2.5-.2.4-.2.8-.3 1.2-.3.7-.1 1.3-.2 2-.2s1.4-.1 2 0v-1.5c0-.3 0-.6-.1-.9-.1-.3-.2-.6-.4-.9-.1-.1-.1-.2-.2-.3-.1-.1-.2-.2-.2-.3-.1-.1-.2-.3-.4-.4-.1-.1-.3-.2-.4-.3-.1-.1-.3-.2-.5-.2-.2-.1-.4-.1-.5-.2-.2 0-.4-.1-.6-.1-.5-.1-.9-.1-1.4-.1-.1 0-.3 0-.4.1-.3.1-.6.2-1 .4-.3.1-.5.2-.8.4l-.1.1v-.9c.4-.2.7-.3 1.1-.5.4-.2.7-.2 1.1-.3H-267.6c.4 0 .9.1 1.3.2.2.1.5.1.7.2l.6.3c.2.1.4.2.6.4.2.2.4.3.6.5.2.2.3.4.5.6.1.2.3.4.4.7.1.2.2.5.3.7v9.5m-2.1-5.8c-.8 0-1.7 0-2.5.1-.3 0-.6.1-.9.2-.2.1-.4.1-.6.2-.2.1-.3.1-.5.2-.1.1-.3.2-.4.2-.1.1-.2.2-.4.3-.1.1-.2.2-.3.4-.1.1-.2.2-.2.4-.2.3-.2.7-.3 1.1 0 .4 0 .9.1 1.3 0 .2.1.5.3.7 0 .1.1.2.1.2.1.1.1.2.2.2l.2.2c.3.2.6.3.8.4.5.1 1 .1 1.5 0 .1 0 .2 0 .3-.1.1 0 .3-.1.4-.1.1-.1.2-.1.4-.2.1-.1.2-.1.3-.2.1-.1.2-.1.2-.2.1-.1.2-.2.3-.4.1-.1.2-.3.3-.4.1-.1.2-.3.2-.4.1-.2.2-.5.2-.7.1-.2.1-.5.1-.7.2-.9.2-1.8.2-2.7z"/><g><path class="st17" d="M-223.7 320.1c-.2.1-.3.2-.6.4-.2.2-.5.4-.8.6-.3.2-.5.4-.7.6-.2.2-.4.3-.7.5-.2.2-.5.4-.7.6-.4.3-.6.5-.8.8l-.4.4-.5.5c-.4.4-1 1.3-1.6 2-.3.4-.6.7-.8 1-.2.3-.4.6-.5.8l-.1.2h.1c.1 0 .2 0 .4-.1.2 0 .5-.1.8-.1.3 0 .6-.1.9-.1.3 0 .5-.1.9-.1s.9 0 1.3-.1H-223.7c.6 0 1.2.1 1.7.2.5 0 .8 0 1.1-.1.3-.1.5-.3.6-.5.1-.1.2-.3.4-.5.1-.2.3-.4.5-.6.2-.2.3-.3.4-.5.2-.2.3-.4.4-.5l.4-.4c.2-.2.4-.5.5-.7.2-.2.2-.4.4-.5.1-.2.3-.3.6-.6s.6-.7.9-1c.3-.3.5-.5.7-.8.2-.3.5-.6.7-.8l.3-.3v-.1h-.2c-.1 0-.4 0-.7-.1h-1.1c-.4 0-.8 0-1.2-.1-.9-.1-1.9-.2-2.9-.2-.5 0-1-.1-1.4-.1h-1.5l-.6.3M-212.8 321.4l-.4.4c-.1.2-.3.3-.5.6-.2.2-.4.5-.7.9-.3.4-.6.9-.9 1.2-.5.7-.8.9-1 1.3-.2.2-.3.4-.4.6-.1.2-.2.3-.3.6-.1.2-.3.5-.5.7-.2.2-.3.4-.4.6-.1.2-.2.3-.3.4 0 0 0 .1.2.1h.4c.2 0 .4 0 .8.1s1.1.2 1.6.3c.5.1.9.2 1.3.3.4.1.8.1 1.1.2.3 0 .5.1.6.1.4.1.9.3 1.4.5.2.1.4.2.7.3l.9.3c.3.1.6.2.7.3.2.1.3.1.3.1h.1s.1-.1.1-.3c.1-.2.1-.4.2-.6.2-.4.3-.7.4-1 .1-.3.4-.7.5-.9.2-.3.3-.5.4-.8 0-.1.1-.2.1-.3 0-.1.1-.2.1-.3.1-.1.2-.3.3-.4.1-.1.1-.2.2-.2.1-.1.2-.4.3-.6.1-.2.2-.4.4-.6.1-.1.2-.2.2-.3.1-.1.1-.2.2-.4.2-.3.7-.9 1.1-1.3.2-.2.4-.4.5-.6.1-.1.3-.2.3-.2.1-.1.1-.1.1-.2 0 0 0-.1-.1-.1s-.1 0-.6-.1-1.4-.3-2-.4c-.6-.1-1-.1-1.3-.2-.4 0-.7-.1-1.1-.2-.4-.1-.8-.1-1.2-.2-.4-.1-.7-.1-1.2-.2s-1.1-.2-1.5-.2c-.4 0-.5 0-.6.1-.1.1-.2.2-.2.3v.1c-.1 0-.2.1-.3.2M-227.6 331.1H-229.3c-.2 0-.5 0-.9.1-.5 0-1.1.1-1.7.2-.6.1-1 .2-1.4.2-.4 0-.8 0-1 .1-.3.1-.5.2-.6.4l-.3.3-.4.4c-.2.2-.4.3-.6.5-.2.2-.4.3-.5.5-.1.1-.2.2-.3.4-.2.2-.5.5-.7.8-.3.3-.5.6-.7.9l-.6.9c-.2.3-.4.6-.7 1.1l-.9 1.5c-.3.5-.5.8-.6 1.2-.2.4-.3.7-.4.9-.1.2-.1.3-.1.3s0 .1.2.1c.3 0 1-.1 1.4-.1h.8c.3 0 .7 0 1.1-.1.4 0 .9-.1 1.3-.1s.7-.1.9-.1h3.6c.3 0 .5 0 .8.1h.9c.3 0 .7.1 1.1.1.4 0 .9.1 1.2.1h.6c.1 0 .2-.1.3-.3.1-.2.2-.5.3-.8.1-.3.2-.5.4-.8.1-.2.2-.5.3-.7l.3-.6.3-.6c.1-.3.3-.6.4-.8.1-.3.2-.5.3-.7.1-.2.2-.5.3-.7l.3-.6c.1-.2.3-.5.4-.7.1-.2.2-.4.4-.6.1-.3.3-.6.5-.8.2-.3.3-.5.4-.7.2-.2.4-.4.5-.6.1-.2.1-.3.1-.4 0-.1-.1-.1-.3-.2-.2 0-.5-.1-1.1-.1h-3.9M-220.8 333c-.2.3-.3.6-.5.9-.2.2-.3.4-.4.6-.2.2-.3.5-.4.8l-.3.6c-.1.3-.3.6-.5.9-.2.3-.3.6-.4.8l-.4.8c-.2.4-.4 1-.6 1.4-.4.9-.5.9-.7 1.3-.1.2-.2.4-.2.6 0 .2 0 .2.1.3.1 0 .2.1.4.1s.5 0 .8.1c.3 0 .7.1 1 .2.3.1.6.1.8.1.2 0 .3 0 .6.1s.8.2 1.1.3c.4.1.6.1.7.2.2 0 .3 0 .4.1.1 0 .3.1.5.1.5.1 1.2.2 1.9.3.3.1.7.2.9.2.3.1.5.1.7.2.3.1.6.2 1 .3.4.1.8.2 1.2.4.4.1.7.3.9.2.2-.1.3-.4.3-.7v-.9c0-.3.1-.7.1-1 .1-.3.1-.5.2-.7.1-.2.1-.4.2-.8s.1-.8.2-1.2c.1-.4.2-.8.3-1 .1-.3.2-.5.2-.7.1-.2.2-.5.3-.8.1-.3.2-.5.3-.8.1-.3.2-.6.3-.8.1-.2.2-.3.2-.6.1-.3.2-.6.1-.9-.1-.2-.4-.3-.6-.3-.3-.1-.5-.2-.7-.2-.2-.1-.4-.1-.6-.1-.1 0-.2 0-.2-.1-.2-.1-.4-.1-.6-.2-.2-.1-.4-.1-.6-.2l-.9-.3c-.9-.3-1.5-.3-2.2-.5-.3-.1-.5-.1-.9-.2-.3-.1-.7-.1-1.1-.2-.4-.1-.8-.1-1.1-.2-.4-.1-.7-.1-.9 0-.2.1-.4.4-.6.7 0 .2-.1.5-.3.8M-233.9 344.7c-.2 0-.4.1-.6.1h-3.9c-.3 0-.6.1-.9.1h-.8c-.2 0-.3 0-.6.1s-.8.1-1.2.2c-.4.1-.9.1-1.3.2-.4 0-.9.1-1.2.2-.3.1-.5.2-.7.5-.2.3-.4.6-.5.9-.2.3-.3.5-.3.7-.1.2-.2.4-.3.7-.1.3-.3.7-.5 1.2s-.5 1.2-.7 1.6c-.2.5-.3.7-.4.9-.1.3-.1.5-.2.8-.2.8-.6 1.9-.8 2.9-.1.6-.3 1.4-.4 2.1-.1.3-.2.7-.2.9-.1.3-.1.5-.1.7v.6c0 .1 0 .1.1.2 0 0 .1.1.3 0 .2 0 .5-.1.7-.2.5-.1 1-.3 1.6-.4.3-.1.6-.1.8-.2.3 0 .5-.1.7-.1.2 0 .4-.1.7-.1.3 0 .7-.1 1.2-.2s1.2-.1 1.9-.2 1.5-.2 2-.2c.6-.1.9-.1 1.3-.1s.8-.1 1.2-.1c.5 0 1 0 1.4-.1.5 0 .8 0 1.1-.1.3 0 .5 0 .7-.1.2 0 .4-.1.5-.1.1 0 .1-.1.2-.2 0-.1 0-.3.1-.5 0-.2.1-.3.1-.5.1-.4.2-.8.2-1.1 0-.2.1-.3.1-.5 0-.1.1-.3.1-.4 0-.2.1-.4.2-.6.1-.2.2-.5.3-.8l.3-.9.3-.9c.1-.3.1-.5.2-.6 0-.2.1-.3.1-.4 0-.1.1-.3.2-.5.1-.4.3-1.1.6-1.8.1-.3.3-.6.4-.9.1-.3.3-.7.4-1 .1-.3.2-.5.3-.7l.3-.6c.1-.2.1-.3.1-.4 0-.1-.1-.2-.2-.2s-.3-.1-.5-.1h-2.1c-.4 0-.9 0-1.3.1-.5 0-.8.1-1 .1M-227.5 347.2c-.1.4-.3.8-.4 1.3-.2.5-.3 1-.5 1.4-.1.4-.3.8-.4 1.1-.2.6-.3 1-.4 1.5-.1.2-.2.5-.3.8-.1.3-.2.6-.3 1.1-.1.5-.2 1.1-.3 1.5-.1.4-.1.6-.2.9 0 .3-.1.6-.1.8 0 .3-.1.5 0 .6 0 .1.1.2.1.2h1.2c.5 0 1 .1 1.5.1 1 .1 1.8.1 2.7.2.4.1.9.1 1.3.2s.8.1 1.3.2c.4.1.9.1 1.3.2.3.1.6.1.8.2.3.1.6.1 1 .2s.9.2 1.3.3c.8.2 1.1.2 1.6.3.3.1.6.2.8.2.3.1.5.1.8.2.2.1.4.1.7.2.3.1.7.2 1 .4.3.1.6.2.8.3.2.1.3.1.4.1h.1v-.2c0-.1-.1-.3-.1-.5s-.1-.5-.2-.9c0-.4-.1-.9-.1-1.3s-.1-.5-.1-.8c0-.2-.1-.5-.2-.8 0-.3-.1-.6-.1-.8v-.6c0-.3-.1-.6-.1-1v-1.2-1.2-1.9c0-.3 0-.6.1-1 0-.2 0-.4.1-.6.1-.2.2-.4.2-.6 0-.1 0-.2-.1-.2-.1-.1-.3-.1-.6-.2-.5-.2-1.1-.4-1.7-.6-.3-.1-.6-.2-1-.3-.3-.1-.7-.2-1.1-.3-.4-.1-1-.3-1.5-.4-.6-.1-1.2-.3-1.8-.4-.7-.1-1.3-.3-1.9-.4-.6-.1-1-.2-1.5-.2-.5-.1-.9-.2-1.4-.2-.4 0-.9-.1-1.1-.1-.6 0-.6-.1-.8.4-.1.2-.2.6-.4.9-.2.3-.2.5-.4.9"/><path class="st17" d="M-223.1 332.8l-.3.6c-.2.3-.3.5-.4.7-.1.1-.1.2-.2.3-.1.1-.1.3-.2.4-.1.2-.2.3-.3.5-.1.2-.2.4-.3.7-.1.3-.3.6-.4.9-.1.3-.3.7-.5 1.1-.2.4-.4.9-.6 1.5-.2.6-.5 1.2-.7 1.6-.2.4-.3.7-.4.9l-.3.6-.3.6c-.1.2-.2.5-.4.9s-.4 1.1-.6 1.6-.3.9-.5 1.2c-.1.4-.3.7-.4 1.1-.3.7-.5 1.4-.7 2l-.3.9c-.1.3-.2.7-.3.9-.2.6-.3 1-.5 1.5-.1.3-.2.5-.2.8-.2.6-.4 1.4-.5 2.1-.1.4-.1.7-.2 1.1-.1.4-.1.8-.2 1.1-.1.6-.1.7-.2 1 0 .1-.1.3-.1.6-.1.3-.2.7-.3 1-.1.3-.1.5-.2.7 0 .2-.1.4-.1.6 0 .2-.1.5-.1.8-.1.7-.1 1.6-.1 2.3v2.4h-4.4c-.3 0-.5 0-.8-.1-.2 0-.3 0-.6-.1-.3 0-.7-.1-1.1-.1-.2 0-.4-.1-.6-.1-.1 0-.2 0-.3-.1h-.3c-.1 0-.3-.1-.5-.1-.4-.1-1-.2-1.6-.3-.3-.1-.6-.1-.9-.2-.3-.1-.7-.2-1.2-.3-.5-.1-1.1-.3-2-.6-1-.3-2.3-.7-3.2-.9-.9-.2-1.3-.4-1.7-.4-.4-.1-.7-.2-.9-.2h-.2c-.1 0-.3.2-.2.3 0 0 0 .1.1.1.2.1.4.3.6.4.3.2.4.2.6.3.1 0 .2.1.3.1.1 0 .2.1.4.2s.4.2.7.3c.1.1.3.1.4.2.2.1.3.1.6.2.2.1.5.2.8.3.3.1.7.2 1.3.4.7.2 1.7.6 2.6.8.9.3 1.7.5 2.2.7.5.2.8.2 1.1.3.3.1.5.1.7.2.3.1.6.1.9.2.3.1.7.2 1.3.3.6.1 1.3.2 2.1.4.1 0 .2 0 .3.1.1 0 .1 0 .5.1.3.1.9.2 1.4.2.5.1.8.1 1.1.1.3 0 .5.1.7.1h3.1c.2 0 .4.1.6.1.2 0 .3 0 .4.1h6.9c.6 0 1.1 0 1.6-.1.4 0 .9-.1 1.2-.1.7 0 1.1-.1 1.7-.1.3 0 .5-.1.9-.1.3 0 .7-.1.9-.1.3 0 .4-.1.5-.1.3 0 .5-.1.7-.1.1 0 .3 0 .5-.1.3 0 .6-.1.9-.1.6-.1 1-.2 1.4-.2.9-.2 1.7-.3 2.6-.6.2-.1.4-.1.6-.2.3-.1.4-.1.6-.2.1 0 .1 0 .2-.1.1 0 .2-.1.3-.1.2-.1.4-.1.5-.2.3-.1.5-.2.7-.3.1 0 .2-.1.4-.2l.6-.3c.2-.1.4-.2.5-.2.1-.1.3-.1.4-.2.2-.1.3-.2.5-.3.3-.2.5-.3.7-.6.1-.1 0-.2-.1-.3h-.1c-.5.1-1 .2-1.4.4-.9.2-1.5.4-2.2.6-.3.1-.7.2-1 .2-.6.1-.9.2-1.4.3-.2 0-.5.1-.7.1-.3 0-.6.1-1.2.2s-1.6.2-2.3.3c-.7.1-1.1.1-1.5.2-.4 0-.8.1-1.2.1-.4 0-.7 0-1.1.1H-223.2c-1.3 0-2.9 0-4-.1h-4c0-.3 0-.6-.1-.8v-.7-.3-.4-.8-.8-.5-.7-.5c0-.2 0-.5.1-.8 0-.3.1-.5.1-.8 0-.3.1-.6.1-1 .1-.8.3-1.7.4-2.5l.3-1.2.3-1.2c.2-.7.3-1.1.4-1.7.1-.3.2-.6.3-1.1.1-.4.3-.9.4-1.4.1-.5.3-.9.4-1.4.2-.4.3-.9.5-1.4.2-.5.4-1.1.7-1.8.3-.7.5-1.3.8-2.1.3-.8.7-1.6 1.1-2.5.4-.9.8-1.9 1.2-2.7.3-.8.6-1.3.8-1.8.2-.5.4-.9.6-1.2.2-.4.3-.7.5-1 .2-.3.3-.6.5-.9.1-.3.3-.5.4-.7.3-.4.5-.8.7-1.2.1-.2.2-.4.4-.6.1-.2.3-.5.4-.7.3-.5.7-1 1-1.6.2-.3.3-.5.5-.8.2-.3.4-.6.7-1.1.3-.5.8-1.1 1.2-1.8.4-.6.9-1.3 1.2-1.8.3-.5.5-.7.7-.9.4-.5.6-.8.9-1.1.1-.2.3-.4.6-.7.3-.3.7-.8.9-1.1.3-.3.4-.5.5-.6.2-.3.4-.5.5-.7.1-.1.2-.3.2-.4.2-.2.2-.2.2-.3 0-.1.1-.1.2-.3.1-.1.2-.2.4-.5.2-.2.6-.6.8-.9l.6-.6c.1-.1.2-.2.2-.3.2-.2.3-.3.2-.5-.1-.1-.2-.1-.3-.1-.1 0-.2.1-.3.2-.1.1-.2.1-.3.2l-.3.3c-.1.1-.3.2-.4.3l-.2.2c-.1 0-.1.1-.1.1l-.1.1-.4.4c-.2.2-.3.4-.6.7-.3.3-.7.8-1.1 1.2-.3.4-.6.7-.8 1-.3.3-.5.6-.8.9-.3.3-.6.7-1 1.2-.5.5-1.1 1.3-1.5 1.8-.5.5-.7.9-1 1.2-.2.3-.5.6-.6.8-.4.5-.7.9-1 1.3-.8 1-1.4 1.9-2.1 2.9-.1.2-.2.4-.4.5-.1.2-.2.4-.4.6-.2.2-.4.5-.5.8-.2.6-.3.9-.5 1.1"/></g><path class="st16" d="M-335.2 205.2c0-1.2-.2-2.3-.5-3.4s-.8-2-1.4-2.8c-.6-.8-1.3-1.4-2.1-1.8-.8-.5-1.8-.7-2.8-.7h-4v17.9h4c1 0 1.9-.3 2.7-.8.8-.5 1.5-1.2 2.1-2.1.6-.9 1-1.8 1.4-3 .5-1 .6-2.1.6-3.3m-6.5-10.3c1.3 0 2.5.3 3.6.8 1 .5 1.9 1.3 2.7 2.2.7.9 1.3 2 1.7 3.3.4 1.3.6 2.6.6 4s-.2 2.8-.6 4.1c-.4 1.3-1 2.5-1.7 3.5s-1.6 1.8-2.7 2.4c-1.1.6-2.2.9-3.5.9h-6.3v-19.7c-.1-.2-.3-.3-.4-.4-.2-.1-.4-.1-.6-.2-.2 0-.4-.1-.6-.1-.2 0-.4-.1-.5-.1v-.7h8.3zM-323.7 208.8h-.6c-.7 0-1.4 0-2.2.1-.7.1-1.4.2-2 .5-.6.2-1.1.6-1.4 1-.4.5-.6 1.1-.6 1.8 0 .9.3 1.6.8 2.1s1.1.7 1.9.7c1 0 1.7-.2 2.3-.6.5-.4.9-.9 1.2-1.4.3-.6.4-1.1.5-1.7 0-.6.1-1.1.1-1.5v-1m2 5.8c.2.3.5.5.8.6.4.1.7.1.9.2v.7h-3.8v-2.4c-.2.4-.4.8-.8 1.2-.3.3-.7.6-1.1.9l-1.2.6c-.4.1-.8.2-1.3.2-1 0-1.8-.2-2.3-.5-.6-.3-1-.7-1.4-1.1-.3-.4-.5-.9-.6-1.4-.1-.5-.2-.9-.2-1.2 0-1.1.3-2 .8-2.7.5-.7 1.2-1.1 2.1-1.5.8-.3 1.7-.5 2.7-.6 1-.1 1.9-.1 2.8-.1h.4V206c0-.4 0-.7-.1-.9-.2-.6-.5-1.1-.9-1.5-.4-.4-.8-.6-1.2-.8-.4-.2-.9-.3-1.4-.3-.5-.1-1-.1-1.5-.1-.1 0-.3 0-.6.1-.2.1-.5.1-.7.2-.2.1-.5.2-.7.3-.2.1-.4.2-.5.3v-.9c.3-.1.7-.3 1.2-.5s1.2-.3 2-.3 1.5.1 2.2.2c.7.1 1.3.4 1.9.7.6.3 1.1.7 1.5 1.1.4.4.7 1 .9 1.6v9.4h.1zM-316.4 214.6c.2.3.5.5.8.6.4.1.7.1 1 .2v.7h-3.8v-19.7c-.2-.3-.5-.5-.8-.6-.3-.1-.7-.1-.9-.2v-.7h3.8v19.7h-.1zM-313.8 216v-.7c.3 0 .6-.1.9-.2.4-.1.6-.2.8-.6v-18.2c-.2-.3-.5-.5-.8-.6-.3-.1-.7-.1-.9-.2v-.8h3.8v12.7l5.7-5.9h2.2l-6.3 6.4 7.9 8-2.2.1-7.3-7.4v7.4h-3.8zM-291.7 208.8h-.6c-.7 0-1.4 0-2.2.1-.7.1-1.4.2-2 .5-.6.2-1.1.6-1.4 1-.4.5-.5 1.1-.5 1.8 0 .9.2 1.6.7 2.1.5.5 1.1.7 1.9.7 1 0 1.7-.2 2.3-.6.5-.4 1-.9 1.2-1.4.3-.6.4-1.1.5-1.7 0-.6.1-1.1.1-1.5v-1m2.1 5.8c.2.3.5.5.8.6.4.1.7.1.9.2v.7h-3.8v-2.4c-.2.4-.4.8-.8 1.2-.3.3-.7.6-1.1.9l-1.2.6c-.4.1-.8.2-1.3.2-1 0-1.8-.2-2.3-.5-.6-.3-1-.7-1.4-1.1-.3-.4-.5-.9-.6-1.4-.1-.5-.1-.9-.1-1.2 0-1.1.3-2 .8-2.7.5-.7 1.2-1.1 2.1-1.5.8-.3 1.7-.5 2.7-.6 1-.1 1.9-.1 2.8-.1h.4V206c0-.4 0-.7-.1-.9-.2-.6-.5-1.1-.8-1.5-.4-.4-.8-.6-1.2-.8-.4-.2-.9-.3-1.4-.3-.5-.1-1-.1-1.5-.1-.1 0-.3 0-.6.1-.2.1-.5.1-.7.2-.2.1-.5.2-.7.3-.2.1-.4.2-.5.3v-.9c.3-.1.7-.3 1.2-.5s1.2-.3 2-.3 1.5.1 2.2.2c.7.1 1.3.4 1.9.7.6.3 1.1.7 1.5 1.1.4.4.7 1 .9 1.6v9.4h-.1zM-284.2 201.6v2c.3-.2.6-.4 1.1-.7.4-.2.9-.5 1.3-.7.5-.2.9-.4 1.3-.5.4-.1.7-.2.9-.2v1.2c-.2 0-.4 0-.8.1s-.8.3-1.3.6c-.4.3-.9.7-1.3 1.1-.4.5-.8 1.1-1.1 1.8v9.6h-2.1v-12.8c-.2-.3-.5-.5-.8-.5-.3-.1-.7-.1-.9-.2v-.8h3.7zM-276.2 214.6c.2.3.5.5.8.6.4.1.7.1 1 .2v.7h-3.8v-19.7c-.2-.3-.5-.5-.8-.6-.3-.1-.7-.1-.9-.2v-.7h3.8v19.7h-.1zM-265.4 212.3c-.3.9-.7 1.6-1.3 2.2-.6.6-1.3 1-2.1 1.2-.8.2-1.6.3-2.5.3-.8-.1-1.6-.3-2.3-.6v-.9c.4.2 1 .4 1.7.4.7.1 1.4 0 2-.2.7-.2 1.2-.5 1.7-.9s.7-1 .7-1.8c0-.6-.2-1-.5-1.4-.3-.4-.7-.7-1.3-.9-.5-.3-1.1-.5-1.7-.7-.6-.2-1.1-.5-1.7-.8-.5-.3-.9-.7-1.3-1.1-.3-.4-.5-1-.5-1.7s.1-1.3.4-1.8c.2-.5.6-1 1-1.3.4-.3.9-.6 1.5-.8.6-.2 1.2-.3 1.8-.3.8 0 1.5 0 2 .1s.9.2 1.3.3v.8c-.7-.3-1.4-.5-2.1-.5-.7 0-1.3.1-1.9.3-.5.2-1 .6-1.3 1.1-.3.5-.5 1.1-.5 1.9 0 .4.2.8.5 1.1.4.3.8.5 1.4.8.5.2 1.1.5 1.7.7.6.2 1.2.5 1.7.9s.9.8 1.2 1.4c.4.7.5 1.4.4 2.2zM-257.9 197.9c-.5.7-1 .7-1.6.4-.1-.1-.3-.2-.4-.4-.2-.4-.3-.9.2-1.4.4-.4.9-.5 1.4-.2.6.5.7 1 .4 1.6m1.4-1.3c-.1-.4-.3-.9-.8-1.3-.8-.7-1.7-.7-2.7-.2-.3.2-.7.6-.9.9-.5 1-.5 1.9.4 3 .8.8 1.7.9 2.6.5.4-.2.9-.6 1.2-1 .3-.6.3-1.2.2-1.9m.7 13.4c0 .4 0 1.1-.2 1.7-.2.7-.4 1.4-1.1 2.1-.2.2-.3.3-.5.4l-.6.3c-.4.2-1.1.3-1.7.3-.3 0-.6 0-.8-.1-.2-.1-.4-.1-.6-.2-.2-.1-.4-.2-.5-.4-.2-.1-.3-.3-.4-.5-.2-.4-.4-1-.4-1.5 0-.3 0-.5.1-.8.1-.6.3-1 .9-1.5.7-.6 1.5-.8 2.3-1 1.1-.2 2.3-.2 3.5-.2v1.4m1.8-5.6c-.2-.5-.6-1-1.1-1.4-1.2-1-2.4-1.3-3.6-1.5-.5-.1-1-.1-1.5-.1h-.8c-.3 0-.5.1-.6.1-.2 0-.3.1-.6.2-.2.1-.6.2-.8.3-.2.1-.3.1-.4.2v.9c.2-.1.3-.2.6-.3.2-.1.4-.1.5-.2.2-.1.6-.2.9-.3.1 0 .3-.1.4-.1h.6c1.1.1 2.4 0 3.6 1.2.1.1.2.2.3.4.3.4.5.9.6 1.3v2.2c-1.4 0-2.7 0-4.2.2-1.1.2-2.1.4-3.2 1.3l-.6.6c-.2.2-.3.4-.4.7-.1.3-.2.5-.3.9-.1.4-.1 1-.1 1.4 0 .5.2 1.2.5 1.8l.6.9c.3.3.6.5 1 .7.2.1.4.2.6.2.7.2 1.7.3 2.6.1.9-.2 1.8-.6 2.7-1.5.4-.4.6-.8.8-1.2v2.4h3.8v-.7c-.4-.1-.8-.1-1.3-.3-.2-.1-.3-.2-.5-.4V205c.1-.2 0-.4-.1-.6zM-381.1 221.1v19.4h-4.2v-.8c.4 0 .8 0 1.1-.1.1 0 .2-.1.4-.1.1-.1.2-.1.3-.2.1-.1.2-.2.3-.2v-17.9h-1.9v-1.6h1.8v-2.3c0-.9.1-1.7.5-2.6.1-.3.3-.6.5-.9.2-.3.4-.5.6-.8.2-.3.4-.5.7-.7.2-.2.5-.4.8-.6.3-.2.6-.3.8-.5.3-.1.6-.3.9-.4l.9-.3c.9-.1 1.7-.3 2.6-.3.9 0 1.7 0 2.6.1l-1.2 1c-.7-.1-1.5-.1-2.2 0-.4.1-.7.1-1.1.2-.4.1-.7.2-1 .4-.3.2-.7.3-1 .6-.3.2-.6.4-.9.7-.2.2-.3.4-.5.7-.2.2-.3.5-.4.8-.1.3-.2.5-.3.8-.1.7-.2 1.4-.2 2.1v2.1h5.7v1.6h-5.6v-.2zM-346 219.1v9.4h.1l.3-.6c.1-.2.3-.4.4-.5.2-.2.3-.4.5-.5.2-.2.4-.3.6-.4.2-.1.4-.2.7-.3.3-.1.6-.2.8-.3.3-.1.6-.1.9-.1.3 0 .6 0 .9.1.3 0 .6.1.9.2.1.1.3.1.4.2.1.1.3.2.4.3.1.1.3.2.4.3.1.1.2.3.3.4.1.2.3.4.4.7.1.2.2.5.3.7.1.2.1.5.2.7.1.5.2 1.1.2 1.6V238.9c0 .1.1.1.1.2s.1.1.2.2.3.2.5.2c.3.1.6.1.9.2v.7h-3.5V232v-.9c0-.3-.1-.6-.1-.9 0-.2-.1-.4-.1-.6-.1-.2-.1-.4-.2-.6l-.3-.6-.3-.3c-.1-.1-.2-.2-.3-.2-.1-.1-.2-.1-.3-.2-.2-.1-.5-.2-.7-.2-.2 0-.4-.1-.7 0-.2 0-.4 0-.7.1-.2 0-.5.1-.7.2-.1.1-.2.1-.3.2-.1.1-.2.1-.3.2-.1.1-.2.2-.4.3-.1.1-.2.2-.3.4-.1.1-.2.3-.3.4-.1.2-.2.5-.3.7-.1.2-.2.5-.2.7-.1.4-.2.7-.2 1.1 0 .4-.1.7-.1 1.1v7.6h-1.9v-19.8c0-.1-.1-.1-.1-.2l-.1-.1c-.2-.1-.3-.2-.5-.3-.3-.1-.6-.1-.9-.2v-.7h3.4v-.1zM-324.3 229.9c.1.4.2.8.3 1.3.1.4.1.9.2 1.3v.6c-.1.6-.1 1.1-.2 1.7 0 .4-.1.8-.2 1.1-.1.2-.1.4-.2.7-.1.3-.2.5-.3.7-.1.2-.3.5-.4.7-.2.2-.3.5-.5.7l-.6.6c-.2.2-.4.4-.7.5-.2.2-.5.3-.8.4-.2.1-.4.2-.7.2-.2.1-.5.1-.7.1-.3 0-.6.1-1 .1-.3 0-.6 0-1-.1-.2 0-.5-.1-.7-.2-.2-.1-.5-.2-.7-.3-.2-.1-.4-.2-.7-.4-.2-.2-.4-.3-.7-.5l-.6-.6c-.2-.2-.3-.4-.5-.7-.2-.3-.3-.5-.5-.8l-.3-.9c-.1-.4-.3-.8-.3-1.3-.1-.4-.1-.9-.1-1.3v-1.3c0-.3.1-.6.1-.9 0-.3.1-.6.2-.9.1-.4.2-.7.3-1.1.1-.3.3-.6.4-.9.2-.3.3-.6.5-.8.2-.3.4-.5.7-.7l.4-.4c.1-.1.3-.2.5-.3.3-.1.5-.3.8-.4.3-.1.6-.2.9-.2.9-.2 1.9-.2 2.8 0 .2 0 .4.1.6.2.2.1.4.1.6.2.2.1.4.2.5.3.2.1.3.2.5.4l.6.6c.2.2.3.4.5.6.2.2.3.5.4.7l.3.6c.1.2.2.5.3.7m-5.7 9.6c.3 0 .6 0 .9-.2.2-.1.3-.1.4-.2.1-.1.3-.2.4-.2.1-.1.2-.2.4-.3.1-.1.2-.2.4-.3.1-.1.2-.2.3-.4.1-.1.2-.3.3-.4.1-.1.2-.3.3-.4.1-.2.2-.5.3-.7.1-.2.2-.5.3-.7.1-.3.1-.5.2-.8.1-.3.1-.5.1-.8v-.9-.9c-.1-.4-.1-.8-.2-1.2-.1-.4-.2-.8-.4-1.2-.1-.3-.3-.7-.5-1-.1-.1-.2-.3-.3-.4-.1-.1-.2-.3-.3-.4-.1-.2-.3-.3-.4-.4-.2-.1-.3-.3-.5-.4-.6-.3-1.1-.5-1.7-.5h-.5c-.2 0-.3.1-.5.1-.2.1-.3.1-.4.2-.1.1-.3.2-.4.3-.2.1-.3.2-.4.4l-.4.4c-.1.1-.2.3-.3.4-.1.2-.2.3-.3.5-.1.2-.2.3-.2.5-.1.2-.2.5-.3.7-.1.2-.1.5-.2.7-.1.2-.1.5-.2.7 0 .3-.1.5-.1.8v1.6c0 .3.1.6.1.8.1.4.2.8.3 1.1.1.4.3.7.5 1.1.1.2.2.4.4.6.1.2.3.4.4.5.1.2.3.3.4.4.2.1.3.3.5.4.4.2.7.4 1.1.4.2.1.3.1.5.1z"/><path class="st16" d="M-367.2 229.9c.1.3.2.7.3 1 .1.3.1.7.2 1 0 .4.1.8.1 1.2-.1.6-.1 1.1-.2 1.7-.1.5-.1.9-.3 1.4v.1c-.1.3-.2.6-.4.9-.1.3-.3.6-.5.8-.2.2-.3.5-.5.7l-.6.6c-.2.2-.4.4-.7.5-.2.2-.5.3-.8.4-.2.1-.4.2-.7.2-.2.1-.5.1-.7.1-.4 0-.8.1-1.1 0-.4 0-.7-.1-1.1-.1-.3-.1-.5-.1-.8-.3-.3-.1-.5-.2-.8-.4-.2-.1-.5-.3-.7-.5-.3-.2-.5-.5-.8-.8l-.6-.9c-.1-.2-.3-.5-.4-.7-.1-.2-.2-.5-.3-.8-.1-.3-.2-.6-.3-1-.1-.3-.1-.7-.2-1-.1-.6-.1-1.3 0-1.9 0-.4.1-.8.1-1.2l.3-1.2c.1-.2.1-.4.2-.5.1-.3.3-.6.4-.9.2-.3.3-.6.5-.8.2-.3.4-.5.6-.7l.4-.4c.1-.1.3-.2.5-.3.3-.1.5-.3.8-.4.3-.1.6-.2.9-.2.9-.2 1.9-.2 2.8 0 .2 0 .4.1.6.2.2.1.4.1.6.2.2.1.4.2.5.3.2.1.3.2.5.4l.6.6c.2.2.3.4.5.6.2.2.3.5.4.7l.3.6c.3.3.3.6.4.8m-5.6 9.6c.3 0 .6 0 .9-.2.2-.1.3-.1.4-.2.1-.1.3-.2.4-.2.1-.1.2-.2.4-.3.1-.1.2-.2.4-.3.1-.1.2-.2.3-.4.2-.2.3-.5.5-.7.1-.3.3-.5.4-.8.1-.4.3-.8.4-1.2.1-.4.1-.8.2-1.2v-.9-.9c-.1-.4-.1-.8-.2-1.2-.1-.4-.2-.8-.4-1.2-.1-.3-.2-.5-.4-.8-.1-.3-.3-.5-.5-.7-.1-.2-.3-.3-.4-.5-.2-.2-.3-.3-.5-.4-.1-.1-.2-.2-.4-.3-.1-.1-.3-.1-.4-.2-.4-.2-.7-.2-1.1-.2h-.5c-.2 0-.3.1-.5.1-.2.1-.3.1-.4.2-.1.1-.3.2-.4.3-.1.1-.3.2-.4.4l-.4.4c-.1.1-.2.3-.3.4-.1.2-.2.3-.3.5-.1.2-.2.3-.2.5-.1.2-.2.5-.3.7-.1.2-.1.5-.2.7-.1.2-.1.5-.2.7 0 .3-.1.5-.1.8v1.6c0 .3.1.6.1.8.1.4.2.8.3 1.1.1.4.3.7.5 1.1.1.2.2.4.4.6.1.2.3.4.4.5.1.2.3.3.4.4.2.1.3.3.5.4.4.2.7.4 1.1.4.1.2.3.2.5.2zM-363.4 238.9c0 .1.1.1.1.2s.1.1.2.2.3.2.5.2c.3.1.6.1.9.2v.7h-3.5v-19.7c0-.1-.1-.1-.1-.2s-.1-.1-.1-.1c-.2-.1-.3-.2-.5-.2-.3-.1-.6-.1-.9-.2v-.7h3.5v19.6h-.1zM-361 240.2v-.7c.3 0 .6-.1 1-.2.2 0 .3-.1.5-.3l.2-.2v-18.2c0-.1-.1-.1-.1-.2s-.1-.1-.1-.1c-.2-.1-.3-.2-.5-.3-.3-.1-.6-.1-.9-.2v-.8h3.5v12.7l5.2-5.9h2l-5.7 6.4 7.2 8-2 .1-6.7-7.4v7.4h-3.6v-.1zM-327.4 220.5c.3 0 .6.1.9.3.1 0 .1.1.1.1.1.1.1.2.2.3.1.2.2.3.2.5s.1.4 0 .5v.3c-.1.3-.2.6-.5.9-.3.3-.7.4-1 .3-.2 0-.4-.1-.5-.2-.1 0-.1-.1-.2-.1s-.1-.1-.1-.1-.1-.1-.1-.2c-.1-.1-.1-.2-.1-.3 0-.1-.1-.2-.1-.3-.1-.4-.1-.7.1-1.1 0-.1.1-.2.1-.3.1-.1.1-.2.2-.3.1-.2.3-.3.5-.4-.1.1.1.1.3.1zM-332.4 220.5c.3 0 .6.1.9.3.1 0 .1.1.1.1.1.1.1.2.2.3.1.2.2.3.2.5s.1.4 0 .5v.3c0 .2-.1.4-.2.6-.1.1-.1.2-.2.2-.1.1-.2.1-.2.2-.3.2-.7.2-1.1.2-.1 0-.2-.1-.3-.2-.1 0-.1-.1-.2-.1s-.1-.1-.1-.1-.1-.1-.1-.2c-.1-.1-.1-.2-.1-.3 0-.1-.1-.2-.1-.3-.1-.4-.1-.7.1-1.1 0-.1.1-.2.1-.3.1-.1.1-.2.2-.3.1-.2.3-.3.5-.4-.1.1.1.1.3.1zM-313.3 225.9h3.5v.8c-.3.1-.6.1-.9.2-.2.1-.4.2-.5.4l-.1.1V240.7c0 .4-.1.8-.1 1.2-.1.3-.1.6-.2 1-.1.2-.2.5-.3.7-.1.2-.2.5-.4.7-.1.2-.2.4-.4.6-.1.2-.3.3-.5.5s-.3.3-.5.4c-.2.1-.4.2-.6.4-.4.2-.8.3-1.2.4-.4.1-.8.2-1.2.2h-1.4c-.5 0-1-.1-1.5-.2-.2 0-.5-.1-.7-.2-.2 0-.3-.1-.5-.2v-.9c.1.1.3.1.4.2.1 0 .3.1.4.1.4.1.8.1 1.2.1h.5c.4 0 .8-.1 1.2-.2.2-.1.5-.1.7-.2l.6-.3c.2-.1.4-.3.6-.4.2-.1.4-.3.5-.5.1-.1.2-.2.3-.4.1-.1.2-.3.3-.4.2-.3.3-.6.4-1 .1-.3.1-.6.2-.8.1-.8.2-1.6.2-2.5v-1.6c-.1.2-.2.4-.2.5-.1.2-.2.3-.3.5-.1.2-.2.4-.4.6-.1.2-.3.3-.5.5-.1.1-.3.2-.5.3-.2.1-.3.2-.5.3-.5.2-1.1.4-1.6.3-.3 0-.7 0-1-.1-.2 0-.3-.1-.5-.1-.2-.1-.3-.1-.5-.2s-.3-.2-.5-.2c-.2-.1-.3-.2-.4-.3l-.6-.6c-.2-.2-.4-.4-.5-.6-.2-.2-.3-.5-.4-.7-.2-.3-.3-.7-.4-1-.1-.3-.2-.7-.3-1-.1-.4-.2-.8-.2-1.3 0-.4-.1-.9-.1-1.3v-1c0-.3.1-.7.1-1 0-.3.1-.6.2-.9l.3-.9c.1-.2.1-.4.2-.6.1-.2.2-.4.3-.5.1-.2.2-.4.4-.5.1-.2.3-.3.4-.5.1-.1.3-.3.5-.4.2-.1.4-.2.5-.3l.6-.3c.2-.1.4-.1.6-.2.2 0 .5-.1.7-.1H-315.8c.3 0 .6.1.9.2.1.1.3.1.4.2.1.1.2.1.4.2s.3.3.5.4c.2.1.3.3.4.4v-1.3m-4 13.1c.2 0 .5 0 .7-.1.1 0 .3-.1.4-.1.1 0 .3-.1.4-.2.1-.1.2-.1.4-.2.1-.1.3-.2.4-.3.1-.1.2-.2.3-.4.1-.1.2-.3.3-.4.2-.3.3-.6.5-.9l.3-.9c.1-.4.2-.8.2-1.2 0-.4.1-.8.1-1.2v-1c0-.3-.1-.7-.1-1-.1-.4-.1-.8-.2-1.1l-.3-.9c-.1-.1-.1-.3-.2-.4-.1-.1-.2-.3-.3-.4-.1-.1-.2-.2-.3-.4-.1-.1-.2-.2-.4-.3-.1-.1-.3-.2-.4-.3-.1-.1-.3-.1-.4-.2-.1 0-.3-.1-.4-.1-.2 0-.5-.1-.7-.1-.2 0-.5 0-.7.1-.1 0-.3.1-.4.1-.1 0-.3.1-.4.2-.1.1-.2.1-.3.2-.1.1-.3.2-.4.3-.1.1-.2.3-.3.4-.1.1-.2.3-.3.4-.2.3-.3.6-.4.9-.1.3-.2.7-.3 1-.1.6-.2 1.2-.2 1.8v1.6c0 .3.1.6.1.9.1.5.2 1 .4 1.5.1.2.1.3.2.4.1.1.1.3.2.4.1.1.2.3.2.4.1.2.2.3.4.4l.4.4c.1.1.2.1.3.2.3.2.7.3 1.1.3-.1.2 0 .2.1.2zM-301.3 236.6c-.1.2-.1.4-.2.6l-.3.6c-.1.2-.3.4-.4.6l-.6.6c-.2.2-.4.3-.6.4-.2.1-.4.3-.7.4-.2.1-.5.2-.7.2-.3.1-.6.1-.9.2h-1c-.2 0-.5-.1-.7-.1-.2-.1-.5-.1-.7-.2l-.6-.3v-.9l.6.3c.3.1.6.1.9.2h.9c.3 0 .6-.1.9-.2.2 0 .3-.1.5-.2s.3-.1.4-.2c.1-.1.3-.2.4-.3l.2-.2.2-.2c.1-.1.1-.2.2-.3.2-.3.2-.7.3-1v-.8c0-.1-.1-.2-.1-.3l-.3-.6-.3-.3-.3-.3c-.2-.2-.4-.3-.7-.4-.5-.3-1-.5-1.5-.7-.1-.1-.3-.1-.4-.2-.3-.2-.7-.3-1-.6-.2-.1-.4-.3-.5-.4l-.5-.5c-.1-.1-.2-.2-.2-.3-.1-.1-.1-.2-.2-.3-.1-.2-.2-.5-.2-.7v-.9c0-.2 0-.4.1-.6 0-.2.1-.4.2-.6.1-.2.1-.3.2-.5s.2-.3.3-.5c.1-.2.3-.3.4-.5.1-.1.3-.3.5-.4.2-.1.5-.3.7-.4.3-.1.5-.2.8-.2.3-.1.5-.1.8-.1h.8c.3 0 .6 0 .8.1.2 0 .5.1.7.1.2.1.5.1.7.2.1 0 .1 0 .1.1v.8l-.6-.3c-.2-.1-.4-.1-.7-.2-.2 0-.4-.1-.6-.1h-.6c-.2 0-.3 0-.5.1-.1 0-.3.1-.4.1-.1.1-.3.1-.4.2-.1.1-.2.1-.3.2l-.3.3c-.1.1-.2.2-.2.3-.1.1-.1.2-.2.3-.3.6-.4 1.2-.4 1.8 0 .3.1.6.3.8l.3.3c.1.1.3.2.4.3.6.3 1.1.6 1.7.8.2.1.4.2.5.2.2.1.4.2.5.3.2.1.3.2.5.3.2.1.3.2.5.3l.4.4c.1.1.3.3.4.5.1.2.2.3.3.5.1.1.1.3.2.4.2.5.2.9.2 1.4v.6zM-301.3 240.2v-.7c.3 0 .6-.1 1-.2.2 0 .3-.1.5-.3l.2-.2v-18.2c0-.1-.1-.1-.1-.2s-.1-.1-.1-.1c-.2-.1-.3-.2-.5-.3-.3-.1-.6-.1-.9-.2v-.8h3.5v12.7l5.2-5.9h2l-5.7 6.4 7.2 8-2 .1-6.6-7.4v7.4h-3.7v-.1z"/><path class="st16" d="M-278.5 229.9c.1.3.2.7.3 1 .1.3.1.7.2 1 0 .4.1.8.1 1.2-.1.6-.1 1.1-.2 1.7-.1.5-.1.9-.3 1.4 0 0 0 .1-.1.1-.1.3-.2.6-.4.9-.1.3-.3.6-.5.8-.2.2-.3.5-.5.7l-.6.6c-.2.2-.4.4-.7.5-.2.2-.5.3-.8.4-.2.1-.4.2-.7.2-.2.1-.4.1-.7.1-.4 0-.8.1-1.1 0-.4 0-.7-.1-1.1-.1-.3-.1-.5-.1-.8-.3-.3-.1-.5-.2-.8-.4-.2-.1-.5-.3-.7-.5-.3-.2-.5-.5-.8-.8l-.6-.9c-.1-.2-.2-.5-.4-.7-.1-.2-.2-.5-.3-.7-.1-.2-.2-.5-.2-.7-.2-.8-.3-1.7-.3-2.5v-.7c0-.5.1-1 .2-1.5s.3-1 .4-1.4c.1-.3.3-.6.4-.9.2-.3.3-.6.5-.8.2-.3.4-.5.6-.7l.4-.4c.1-.1.3-.2.5-.3.3-.1.5-.3.8-.4.3-.1.6-.2.9-.2.9-.2 1.9-.2 2.8 0 .2 0 .4.1.6.2.2.1.4.1.6.2.2.1.4.2.5.3.2.1.3.2.5.4l.6.6c.2.2.3.4.5.6.2.2.3.5.4.7l.3.6c.3.2.4.5.5.7m-5.7 9.6c.3 0 .6 0 .9-.2.2-.1.3-.1.4-.2.1-.1.3-.2.4-.2.1-.1.2-.2.4-.3l.3-.3c.1-.1.2-.2.3-.4.2-.2.3-.5.5-.7.1-.3.3-.5.4-.8.1-.4.3-.8.4-1.2.1-.4.1-.8.2-1.2v-.9-.9c0-.4-.1-.8-.2-1.2-.1-.4-.2-.8-.4-1.2-.1-.3-.2-.6-.4-.8-.1-.3-.3-.5-.5-.7-.1-.2-.3-.3-.4-.5-.2-.2-.3-.3-.5-.4-.1-.1-.2-.2-.4-.3-.1-.1-.3-.1-.4-.2-.4-.2-.7-.2-1.1-.2h-.5c-.2 0-.3.1-.5.1-.1.1-.3.1-.4.2-.1.1-.3.2-.4.3-.1.1-.3.2-.4.4l-.4.4c-.1.1-.2.3-.3.4-.1.1-.2.3-.3.5-.1.2-.2.3-.2.5-.1.2-.2.5-.3.7-.1.2-.1.5-.2.7-.1.2-.1.5-.2.8 0 .3-.1.5-.1.8v1.6c0 .3.1.6.1.8.1.4.2.8.3 1.1.1.4.3.7.5 1.1l.3.6c.1.2.3.4.4.5.1.2.3.3.4.4.2.1.3.3.5.4.4.2.7.4 1.1.4.4.1.6.1.7.1zM-274.7 238.9c0 .1.1.1.1.2s.1.1.2.2.3.2.5.2c.3.1.6.1.9.2v.7h-3.5v-19.7c0-.1-.1-.1-.1-.2s-.1-.1-.1-.1c-.2-.1-.3-.2-.5-.2-.3-.1-.6-.1-.9-.2v-.7h3.5v19.6h-.1zM-262.9 238.8l.1.1c.2.3.4.4.7.4.3.1.6.1.9.2v.7h-3.5v-2.4c-.1.2-.2.4-.3.5-.1.2-.2.3-.3.5-.1.2-.3.3-.4.4l-.5.5c-.2.1-.4.3-.6.4l-.6.3c-.2.1-.4.1-.6.1h-.6c-.3 0-.6 0-.9-.1-.2 0-.3-.1-.5-.1s-.3-.1-.5-.2-.3-.2-.5-.3c-.2-.1-.3-.2-.4-.4l-.4-.4c-.1-.2-.2-.3-.3-.5-.1-.2-.2-.3-.2-.5-.1-.3-.2-.7-.2-1.1v-.6c0-.5 0-1 .1-1.5 0-.2.1-.3.2-.5s.1-.3.2-.5c.1-.1.1-.2.2-.3l.3-.3c.2-.2.4-.4.6-.5.2-.2.4-.3.7-.4.2-.1.4-.2.5-.2.4-.2.8-.3 1.2-.3.7-.1 1.3-.2 2-.2s1.4-.1 2 0v-1.5c0-.3 0-.6-.1-.9-.1-.3-.2-.6-.4-.9-.1-.1-.1-.2-.2-.3-.1-.1-.2-.2-.2-.3-.1-.1-.2-.3-.4-.4-.1-.1-.3-.2-.4-.3-.1-.1-.3-.2-.5-.2-.2-.1-.4-.1-.5-.2-.2 0-.4-.1-.6-.1-.5-.1-.9-.1-1.4-.1-.1 0-.3 0-.4.1-.3.1-.6.2-1 .4-.3.1-.5.2-.8.4l-.1.1v-.9c.4-.2.7-.3 1.1-.5.4-.2.7-.2 1.1-.3H-267.6c.4 0 .9.1 1.3.2.2.1.5.1.7.2l.6.3c.2.1.4.2.6.4.2.2.4.3.6.5.2.2.3.4.5.6.1.2.3.4.4.7.1.2.2.5.3.7v9.5m-2.1-5.8c-.8 0-1.7 0-2.5.1-.3 0-.6.1-.9.2-.2.1-.4.1-.6.2-.2.1-.3.1-.5.2-.1.1-.3.2-.4.2-.1.1-.2.2-.4.3-.1.1-.2.2-.3.4-.1.1-.2.2-.2.4-.2.3-.2.7-.3 1.1 0 .4 0 .9.1 1.3 0 .2.1.5.3.7 0 .1.1.2.1.2.1.1.1.2.2.2l.2.2c.3.2.6.3.8.4.5.1 1 .1 1.5 0 .1 0 .2 0 .3-.1.1 0 .3-.1.4-.1.1-.1.2-.1.4-.2.1-.1.2-.1.3-.2.1-.1.2-.1.2-.2.1-.1.2-.2.3-.4.1-.1.2-.3.3-.4.1-.1.2-.3.2-.4.1-.2.2-.5.2-.7.1-.2.1-.5.1-.7.2-.9.2-1.8.2-2.7z"/><g><path class="st16" d="M-223.7 194.1c-.2.1-.3.2-.6.4-.2.2-.5.4-.8.6-.3.2-.5.4-.7.6-.2.2-.4.3-.7.5-.2.2-.5.4-.7.6-.4.3-.6.5-.8.8l-.4.4-.5.5c-.4.4-1 1.3-1.6 2-.3.4-.6.7-.8 1-.2.3-.4.6-.5.8l-.1.2h.1c.1 0 .2 0 .4-.1.2 0 .5-.1.8-.1.3 0 .6-.1.9-.1.3 0 .5-.1.9-.1s.9 0 1.3-.1H-223.7c.6 0 1.2.1 1.7.2.5 0 .8 0 1.1-.1.3-.1.5-.3.6-.5.1-.1.2-.3.4-.5.1-.2.3-.4.5-.6.2-.2.3-.3.4-.5.2-.2.3-.4.4-.5l.4-.4c.2-.2.4-.5.5-.7.2-.2.2-.4.4-.5.1-.2.3-.3.6-.6s.6-.7.9-1c.3-.3.5-.5.7-.8.2-.3.5-.6.7-.8l.3-.3v-.1h-.2c-.1 0-.4 0-.7-.1h-1.1c-.4 0-.8 0-1.2-.1-.9-.1-1.9-.2-2.9-.2-.5 0-1-.1-1.4-.1h-1.5l-.6.3M-212.8 195.4l-.4.4c-.1.2-.3.3-.5.6-.2.2-.4.5-.7.9-.3.4-.6.9-.9 1.2-.5.7-.8.9-1 1.3-.2.2-.3.4-.4.6-.1.2-.2.3-.3.6-.1.2-.3.5-.5.7-.2.2-.3.4-.4.6-.1.2-.2.3-.3.4 0 0 0 .1.2.1h.4c.2 0 .4 0 .8.1s1.1.2 1.6.3c.5.1.9.2 1.3.3.4.1.8.1 1.1.2.3 0 .5.1.6.1.4.1.9.3 1.4.5.2.1.4.2.7.3l.9.3c.3.1.6.2.7.3.2.1.3.1.3.1h.1s.1-.1.1-.3c.1-.2.1-.4.2-.6.2-.4.3-.7.4-1 .1-.3.4-.7.5-.9.2-.3.3-.5.4-.8 0-.1.1-.2.1-.3 0-.1.1-.2.1-.3.1-.1.2-.3.3-.4.1-.1.1-.2.2-.2.1-.1.2-.4.3-.6.1-.2.2-.4.4-.6.1-.1.2-.2.2-.3.1-.1.1-.2.2-.4.2-.3.7-.9 1.1-1.3.2-.2.4-.4.5-.6.1-.1.3-.2.3-.2.1-.1.1-.1.1-.2 0 0 0-.1-.1-.1s-.1 0-.6-.1-1.4-.3-2-.4c-.6-.1-1-.1-1.3-.2-.4 0-.7-.1-1.1-.2-.4-.1-.8-.1-1.2-.2-.4-.1-.7-.1-1.2-.2s-1.1-.2-1.5-.2c-.4 0-.5 0-.6.1-.1.1-.2.2-.2.3v.1c-.1 0-.2.1-.3.2M-227.6 205.1H-229.3c-.2 0-.5 0-.9.1-.5 0-1.1.1-1.7.2-.6.1-1 .2-1.4.2-.4 0-.8 0-1 .1-.3.1-.5.2-.6.4l-.3.3-.4.4c-.2.2-.4.3-.6.5-.2.2-.4.3-.5.5-.1.1-.2.2-.3.4-.2.2-.5.5-.7.8-.3.3-.5.6-.7.9l-.6.9c-.2.3-.4.6-.7 1.1l-.9 1.5c-.3.5-.5.8-.6 1.2-.2.4-.3.7-.4.9-.1.2-.1.3-.1.3s0 .1.2.1c.3 0 1-.1 1.4-.1h.8c.3 0 .7 0 1.1-.1.4 0 .9-.1 1.3-.1s.7-.1.9-.1h3.6c.3 0 .5 0 .8.1h.9c.3 0 .7.1 1.1.1.4 0 .9.1 1.2.1h.6c.1 0 .2-.1.3-.3.1-.2.2-.5.3-.8.1-.3.2-.5.4-.8.1-.2.2-.5.3-.7l.3-.6.3-.6c.1-.3.3-.6.4-.8.1-.3.2-.5.3-.7.1-.2.2-.5.3-.7l.3-.6c.1-.2.3-.5.4-.7.1-.2.2-.4.4-.6.1-.3.3-.6.5-.8.2-.3.3-.5.4-.7.2-.2.4-.4.5-.6.1-.2.1-.3.1-.4 0-.1-.1-.1-.3-.2-.2 0-.5-.1-1.1-.1h-3.9M-220.8 207c-.2.3-.3.6-.5.9-.2.2-.3.4-.4.6-.2.2-.3.5-.4.8l-.3.6c-.1.3-.3.6-.5.9-.2.3-.3.6-.4.8l-.4.8c-.2.4-.4 1-.6 1.4-.4.9-.5.9-.7 1.3-.1.2-.2.4-.2.6 0 .2 0 .2.1.3.1 0 .2.1.4.1s.5 0 .8.1c.3 0 .7.1 1 .2.3.1.6.1.8.1.2 0 .3 0 .6.1s.8.2 1.1.3c.4.1.6.1.7.2.2 0 .3 0 .4.1.1 0 .3.1.5.1.5.1 1.2.2 1.9.3.3.1.7.2.9.2.3.1.5.1.7.2.3.1.6.2 1 .3.4.1.8.2 1.2.4.4.1.7.3.9.2.2-.1.3-.4.3-.7v-.9c0-.3.1-.7.1-1 .1-.3.1-.5.2-.7.1-.2.1-.4.2-.8s.1-.8.2-1.2c.1-.4.2-.8.3-1 .1-.3.2-.5.2-.7.1-.2.2-.5.3-.8.1-.3.2-.5.3-.8.1-.3.2-.6.3-.8.1-.2.2-.3.2-.6.1-.3.2-.6.1-.9-.1-.2-.4-.3-.6-.3-.3-.1-.5-.2-.7-.2-.2-.1-.4-.1-.6-.1-.1 0-.2 0-.2-.1-.2-.1-.4-.1-.6-.2-.2-.1-.4-.1-.6-.2l-.9-.3c-.9-.3-1.5-.3-2.2-.5-.3-.1-.5-.1-.9-.2-.3-.1-.7-.1-1.1-.2-.4-.1-.8-.1-1.1-.2-.4-.1-.7-.1-.9 0-.2.1-.4.4-.6.7 0 .2-.1.5-.3.8M-233.9 218.7c-.2 0-.4.1-.6.1h-3.9c-.3 0-.6.1-.9.1h-.8c-.2 0-.3 0-.6.1s-.8.1-1.2.2c-.4.1-.9.1-1.3.2-.4 0-.9.1-1.2.2-.3.1-.5.2-.7.5-.2.3-.4.6-.5.9-.2.3-.3.5-.3.7-.1.2-.2.4-.3.7-.1.3-.3.7-.5 1.2s-.5 1.2-.7 1.6c-.2.5-.3.7-.4.9-.1.3-.1.5-.2.8-.2.8-.6 1.9-.8 2.9-.1.6-.3 1.4-.4 2.1-.1.3-.2.7-.2.9-.1.3-.1.5-.1.7v.6c0 .1 0 .1.1.2 0 0 .1.1.3 0 .2 0 .5-.1.7-.2.5-.1 1-.3 1.6-.4.3-.1.6-.1.8-.2.3 0 .5-.1.7-.1.2 0 .4-.1.7-.1.3 0 .7-.1 1.2-.2s1.2-.1 1.9-.2 1.5-.2 2-.2c.6-.1.9-.1 1.3-.1s.8-.1 1.2-.1c.5 0 1 0 1.4-.1.5 0 .8 0 1.1-.1.3 0 .5 0 .7-.1.2 0 .4-.1.5-.1.1 0 .1-.1.2-.2 0-.1 0-.3.1-.5 0-.2.1-.3.1-.5.1-.4.2-.8.2-1.1 0-.2.1-.3.1-.5 0-.1.1-.3.1-.4 0-.2.1-.4.2-.6.1-.2.2-.5.3-.8l.3-.9.3-.9c.1-.3.1-.5.2-.6 0-.2.1-.3.1-.4 0-.1.1-.3.2-.5.1-.4.3-1.1.6-1.8.1-.3.3-.6.4-.9.1-.3.3-.7.4-1 .1-.3.2-.5.3-.7l.3-.6c.1-.2.1-.3.1-.4 0-.1-.1-.2-.2-.2s-.3-.1-.5-.1h-2.1c-.4 0-.9 0-1.3.1-.5 0-.8.1-1 .1M-227.5 221.2c-.1.4-.3.8-.4 1.3-.2.5-.3 1-.5 1.4-.1.4-.3.8-.4 1.1-.2.6-.3 1-.4 1.5-.1.2-.2.5-.3.8-.1.3-.2.6-.3 1.1-.1.5-.2 1.1-.3 1.5-.1.4-.1.6-.2.9 0 .3-.1.6-.1.8 0 .3-.1.5 0 .6 0 .1.1.2.1.2h1.2c.5 0 1 .1 1.5.1 1 .1 1.8.1 2.7.2.4.1.9.1 1.3.2s.8.1 1.3.2c.4.1.9.1 1.3.2.3.1.6.1.8.2.3.1.6.1 1 .2s.9.2 1.3.3c.8.2 1.1.2 1.6.3.3.1.6.2.8.2.3.1.5.1.8.2.2.1.4.1.7.2.3.1.7.2 1 .4.3.1.6.2.8.3.2.1.3.1.4.1h.1v-.2c0-.1-.1-.3-.1-.5s-.1-.5-.2-.9c0-.4-.1-.9-.1-1.3s-.1-.5-.1-.8c0-.2-.1-.5-.2-.8 0-.3-.1-.6-.1-.8v-.6c0-.3-.1-.6-.1-1v-1.2-1.2-1.9c0-.3 0-.6.1-1 0-.2 0-.4.1-.6.1-.2.2-.4.2-.6 0-.1 0-.2-.1-.2-.1-.1-.4-.1-.6-.2-.5-.2-1.1-.4-1.7-.6-.3-.1-.6-.2-1-.3-.3-.1-.7-.2-1.1-.3-.4-.1-1-.3-1.5-.4-.6-.1-1.2-.3-1.8-.4-.7-.1-1.3-.3-1.9-.4-.6-.1-1-.2-1.5-.2-.5-.1-.9-.2-1.4-.2-.4 0-.9-.1-1.1-.1-.6 0-.6-.1-.8.4-.1.2-.2.6-.4.9-.2.3-.2.5-.4.9"/><path class="st16" d="M-223.1 206.8l-.3.6c-.2.3-.3.5-.4.7-.1.1-.1.2-.2.3-.1.1-.1.3-.2.4-.1.2-.2.3-.3.5-.1.2-.2.4-.3.7-.1.3-.3.6-.4.9-.1.3-.3.7-.5 1.1-.2.4-.4.9-.6 1.5-.2.6-.5 1.2-.7 1.6-.2.4-.3.7-.4.9l-.3.6-.3.6c-.1.2-.2.5-.4.9s-.4 1.1-.6 1.6c-.2.5-.3.9-.5 1.2-.1.4-.3.7-.4 1.1-.3.7-.5 1.4-.7 2l-.3.9c-.1.3-.2.7-.3.9-.2.6-.3 1-.5 1.5-.1.3-.2.5-.2.8-.2.6-.4 1.4-.5 2.1-.1.4-.1.7-.2 1.1-.1.4-.1.8-.2 1.1-.1.6-.1.7-.2 1 0 .1-.1.3-.1.6-.1.3-.2.7-.3 1-.1.3-.1.5-.2.7 0 .2-.1.4-.1.6 0 .2-.1.5-.1.8-.1.7-.1 1.6-.1 2.3v2.4h-4.4c-.3 0-.5 0-.8-.1-.2 0-.3 0-.6-.1-.3 0-.7-.1-1.1-.1-.2 0-.4-.1-.6-.1-.1 0-.2 0-.3-.1h-.3c-.1 0-.3-.1-.5-.1-.4-.1-1-.2-1.6-.3-.3-.1-.6-.1-.9-.2-.3-.1-.7-.2-1.2-.3-.5-.1-1.1-.3-2-.6-1-.3-2.3-.7-3.2-.9-.9-.2-1.3-.4-1.7-.4-.4-.1-.7-.2-.9-.2h-.2c-.1 0-.3.2-.2.3 0 0 0 .1.1.1.2.1.4.3.6.4.3.2.4.2.6.3.1 0 .2.1.3.1.1 0 .2.1.4.2s.4.2.7.3c.1.1.3.1.4.2.2.1.3.1.6.2.2.1.5.2.8.3.3.1.7.2 1.3.4.7.2 1.7.6 2.6.8.9.3 1.7.5 2.2.7.5.2.8.2 1.1.3.3.1.5.1.7.2.3.1.6.1.9.2.3.1.7.2 1.3.3.6.1 1.3.2 2.1.4.1 0 .2 0 .3.1.1 0 .1 0 .5.1.3.1.9.2 1.4.2.5.1.8.1 1.1.1.3 0 .5.1.7.1h3.1c.2 0 .4.1.6.1.2 0 .3 0 .4.1h6.9c.6 0 1.1 0 1.6-.1.4 0 .9-.1 1.2-.1.7 0 1.1-.1 1.7-.1.3 0 .5-.1.9-.1.3 0 .7-.1.9-.1.3 0 .4-.1.5-.1.3 0 .5-.1.7-.1.1 0 .3 0 .5-.1.3 0 .6-.1.9-.1.6-.1 1-.2 1.4-.2.9-.2 1.7-.3 2.6-.6.2-.1.4-.1.6-.2.3-.1.4-.1.6-.2.1 0 .1 0 .2-.1.1 0 .2-.1.3-.1.2-.1.4-.1.5-.2.3-.1.5-.2.7-.3.1 0 .2-.1.4-.2l.6-.3c.2-.1.4-.2.5-.2.1-.1.3-.1.4-.2.2-.1.3-.2.5-.3.3-.2.5-.3.7-.6.1-.1 0-.2-.1-.3h-.1c-.5.1-1 .2-1.4.4-.9.2-1.5.4-2.2.6-.3.1-.7.2-1 .2-.6.1-.9.2-1.4.3-.2 0-.5.1-.7.1-.3 0-.6.1-1.2.2s-1.6.2-2.3.3c-.7.1-1.1.1-1.5.2-.4 0-.8.1-1.2.1-.4 0-.7 0-1.1.1H-223.2c-1.3 0-2.9 0-4-.1h-4c0-.3 0-.6-.1-.8v-.7-.3-.4-.8-.8-.5-.7-.5c0-.2 0-.5.1-.8 0-.3.1-.5.1-.8 0-.3.1-.6.1-1 .1-.8.3-1.7.4-2.5l.3-1.2.3-1.2c.2-.7.3-1.1.4-1.7.1-.3.2-.6.3-1.1.1-.4.3-.9.4-1.4.1-.5.3-.9.4-1.4.2-.4.3-.9.5-1.4.2-.5.4-1.1.7-1.8.3-.7.5-1.3.8-2.1.3-.8.7-1.6 1.1-2.5.4-.9.8-1.9 1.2-2.7.3-.8.6-1.3.8-1.8.2-.5.4-.9.6-1.2.2-.4.3-.7.5-1 .2-.3.3-.6.5-.9.1-.3.3-.5.4-.7.3-.4.5-.8.7-1.2.1-.2.2-.4.4-.6.1-.2.3-.5.4-.7.3-.5.7-1 1-1.6.2-.3.3-.5.5-.8.2-.3.4-.6.7-1.1.3-.5.8-1.1 1.2-1.8.4-.6.9-1.3 1.2-1.8.3-.5.5-.7.7-.9.4-.5.6-.8.9-1.1.1-.2.3-.4.6-.7.3-.3.7-.8.9-1.1.3-.3.4-.5.5-.6.2-.3.4-.5.5-.7.1-.1.2-.3.2-.4.2-.2.2-.2.2-.3 0-.1.1-.1.2-.3.1-.1.2-.2.4-.5.2-.2.6-.6.8-.9l.6-.6c.1-.1.2-.2.2-.3.2-.2.3-.3.2-.5-.1-.1-.2-.1-.3-.1-.1 0-.2.1-.3.2-.1.1-.2.1-.3.2l-.3.3c-.1.1-.3.2-.4.3l-.2.2c-.1 0-.1.1-.1.1l-.1.1-.4.4c-.2.2-.3.4-.6.7-.3.3-.7.8-1.1 1.2-.3.4-.6.7-.8 1-.3.3-.5.6-.8.9-.3.3-.6.7-1 1.2-.5.5-1.1 1.3-1.5 1.8-.5.5-.7.9-1 1.2-.2.3-.5.6-.6.8-.4.5-.7.9-1 1.3-.8 1-1.4 1.9-2.1 2.9-.1.2-.2.4-.4.5-.1.2-.2.4-.4.6-.2.2-.4.5-.5.8-.2.6-.3.9-.5 1.1"/></g></g></svg>